%TF.GenerationSoftware,KiCad,Pcbnew,9.0.7*%
%TF.CreationDate,2026-04-17T14:46:00+02:00*%
%TF.ProjectId,05_pcb,30355f70-6362-42e6-9b69-6361645f7063,rev?*%
%TF.SameCoordinates,Original*%
%TF.FileFunction,Soldermask,Top*%
%TF.FilePolarity,Negative*%
%FSLAX46Y46*%
G04 Gerber Fmt 4.6, Leading zero omitted, Abs format (unit mm)*
G04 Created by KiCad (PCBNEW 9.0.7) date 2026-04-17 14:46:00*
%MOMM*%
%LPD*%
G01*
G04 APERTURE LIST*
G04 Aperture macros list*
%AMRoundRect*
0 Rectangle with rounded corners*
0 $1 Rounding radius*
0 $2 $3 $4 $5 $6 $7 $8 $9 X,Y pos of 4 corners*
0 Add a 4 corners polygon primitive as box body*
4,1,4,$2,$3,$4,$5,$6,$7,$8,$9,$2,$3,0*
0 Add four circle primitives for the rounded corners*
1,1,$1+$1,$2,$3*
1,1,$1+$1,$4,$5*
1,1,$1+$1,$6,$7*
1,1,$1+$1,$8,$9*
0 Add four rect primitives between the rounded corners*
20,1,$1+$1,$2,$3,$4,$5,0*
20,1,$1+$1,$4,$5,$6,$7,0*
20,1,$1+$1,$6,$7,$8,$9,0*
20,1,$1+$1,$8,$9,$2,$3,0*%
G04 Aperture macros list end*
%ADD10O,1.600000X1.000000*%
%ADD11O,2.100000X1.000000*%
%ADD12RoundRect,0.150000X-0.500000X0.150000X-0.500000X-0.150000X0.500000X-0.150000X0.500000X0.150000X0*%
%ADD13RoundRect,0.075000X-0.575000X0.075000X-0.575000X-0.075000X0.575000X-0.075000X0.575000X0.075000X0*%
%ADD14C,0.650000*%
%ADD15RoundRect,0.250000X-0.550000X0.550000X-0.550000X-0.550000X0.550000X-0.550000X0.550000X0.550000X0*%
%ADD16C,1.600000*%
%ADD17R,3.400000X4.300000*%
%ADD18RoundRect,0.125000X-0.200000X-0.125000X0.200000X-0.125000X0.200000X0.125000X-0.200000X0.125000X0*%
%ADD19RoundRect,0.250000X0.475000X-0.250000X0.475000X0.250000X-0.475000X0.250000X-0.475000X-0.250000X0*%
%ADD20RoundRect,0.250000X-0.262500X-0.450000X0.262500X-0.450000X0.262500X0.450000X-0.262500X0.450000X0*%
%ADD21R,1.700000X1.700000*%
%ADD22O,1.700000X1.700000*%
%ADD23RoundRect,0.250000X-0.250000X-0.475000X0.250000X-0.475000X0.250000X0.475000X-0.250000X0.475000X0*%
%ADD24R,1.600000X0.550000*%
%ADD25R,0.550000X1.600000*%
%ADD26RoundRect,0.250000X0.250000X0.475000X-0.250000X0.475000X-0.250000X-0.475000X0.250000X-0.475000X0*%
%ADD27RoundRect,0.150000X-0.825000X-0.150000X0.825000X-0.150000X0.825000X0.150000X-0.825000X0.150000X0*%
%ADD28RoundRect,0.250000X-0.450000X0.262500X-0.450000X-0.262500X0.450000X-0.262500X0.450000X0.262500X0*%
%ADD29RoundRect,0.150000X-0.512500X-0.150000X0.512500X-0.150000X0.512500X0.150000X-0.512500X0.150000X0*%
%ADD30RoundRect,0.150000X-0.587500X-0.150000X0.587500X-0.150000X0.587500X0.150000X-0.587500X0.150000X0*%
%ADD31RoundRect,0.243750X-0.243750X-0.456250X0.243750X-0.456250X0.243750X0.456250X-0.243750X0.456250X0*%
%ADD32R,2.000000X2.000000*%
%ADD33C,2.000000*%
G04 APERTURE END LIST*
D10*
%TO.C,J2*%
X128925000Y-108920000D03*
D11*
X133105000Y-108920000D03*
D10*
X128925000Y-100280000D03*
D11*
X133105000Y-100280000D03*
D12*
X133745000Y-101400000D03*
X133745000Y-102200000D03*
D13*
X133745000Y-102850000D03*
X133745000Y-103850000D03*
X133745000Y-105350000D03*
X133745000Y-106350000D03*
D12*
X133745000Y-107000000D03*
X133745000Y-107800000D03*
X133745000Y-107800000D03*
X133745000Y-107000000D03*
D13*
X133745000Y-105850000D03*
X133745000Y-104850000D03*
X133745000Y-104350000D03*
X133745000Y-103350000D03*
D12*
X133745000Y-102200000D03*
X133745000Y-101400000D03*
D14*
X132605000Y-107490000D03*
X132605000Y-101710000D03*
%TD*%
D15*
%TO.C,SW1*%
X156600000Y-111800000D03*
D16*
X156600000Y-119420000D03*
%TD*%
D17*
%TO.C,U2*%
X145905000Y-116750000D03*
D18*
X149655000Y-114845000D03*
X149655000Y-116115000D03*
X149655000Y-117385000D03*
X149655000Y-118655000D03*
X142155000Y-118655000D03*
X142155000Y-117385000D03*
X142155000Y-116115000D03*
X142155000Y-114845000D03*
%TD*%
D19*
%TO.C,C6*%
X133305000Y-79160000D03*
X133305000Y-77260000D03*
%TD*%
D20*
%TO.C,R8*%
X138150000Y-114405000D03*
X139975000Y-114405000D03*
%TD*%
D21*
%TO.C,J1*%
X129180000Y-78200000D03*
D22*
X129180000Y-80740000D03*
X129180000Y-83280000D03*
X129180000Y-85820000D03*
X129180000Y-88360000D03*
X129180000Y-90900000D03*
X129180000Y-93440000D03*
X129180000Y-95980000D03*
%TD*%
D20*
%TO.C,R2*%
X147040000Y-106785000D03*
X148865000Y-106785000D03*
%TD*%
D19*
%TO.C,C2*%
X135300000Y-118845000D03*
X135300000Y-116945000D03*
%TD*%
D23*
%TO.C,C1*%
X146010000Y-92815000D03*
X147910000Y-92815000D03*
%TD*%
D24*
%TO.C,U1*%
X142270000Y-79220000D03*
X142270000Y-80020000D03*
X142270000Y-80820000D03*
X142270000Y-81620000D03*
X142270000Y-82420000D03*
X142270000Y-83220000D03*
X142270000Y-84020000D03*
X142270000Y-84820000D03*
D25*
X143720000Y-86270000D03*
X144520000Y-86270000D03*
X145320000Y-86270000D03*
X146120000Y-86270000D03*
X146920000Y-86270000D03*
X147720000Y-86270000D03*
X148520000Y-86270000D03*
X149320000Y-86270000D03*
D24*
X150770000Y-84820000D03*
X150770000Y-84020000D03*
X150770000Y-83220000D03*
X150770000Y-82420000D03*
X150770000Y-81620000D03*
X150770000Y-80820000D03*
X150770000Y-80020000D03*
X150770000Y-79220000D03*
D25*
X149320000Y-77770000D03*
X148520000Y-77770000D03*
X147720000Y-77770000D03*
X146920000Y-77770000D03*
X146120000Y-77770000D03*
X145320000Y-77770000D03*
X144520000Y-77770000D03*
X143720000Y-77770000D03*
%TD*%
D26*
%TO.C,C4*%
X135530000Y-97260000D03*
X133630000Y-97260000D03*
%TD*%
D20*
%TO.C,R3*%
X136187500Y-106900000D03*
X138012500Y-106900000D03*
%TD*%
D27*
%TO.C,U3*%
X138200000Y-92180000D03*
X138200000Y-93450000D03*
X138200000Y-94720000D03*
X138200000Y-95990000D03*
X138200000Y-97260000D03*
X138200000Y-98530000D03*
X138200000Y-99800000D03*
X138200000Y-101070000D03*
X143150000Y-101070000D03*
X143150000Y-99800000D03*
X143150000Y-98530000D03*
X143150000Y-97260000D03*
X143150000Y-95990000D03*
X143150000Y-94720000D03*
X143150000Y-93450000D03*
X143150000Y-92180000D03*
%TD*%
D28*
%TO.C,R7*%
X152397500Y-96982500D03*
X152397500Y-98807500D03*
%TD*%
D20*
%TO.C,R1*%
X132077500Y-113135000D03*
X133902500Y-113135000D03*
%TD*%
D26*
%TO.C,C5*%
X148230000Y-97895000D03*
X146330000Y-97895000D03*
%TD*%
D23*
%TO.C,C3*%
X151205000Y-114405000D03*
X153105000Y-114405000D03*
%TD*%
D20*
%TO.C,R6*%
X137987500Y-77575000D03*
X139812500Y-77575000D03*
%TD*%
%TO.C,R4*%
X151485000Y-102975000D03*
X153310000Y-102975000D03*
%TD*%
D29*
%TO.C,U4*%
X141377500Y-107105000D03*
X141377500Y-108055000D03*
X141377500Y-109005000D03*
X143652500Y-109005000D03*
X143652500Y-107105000D03*
%TD*%
D30*
%TO.C,U5*%
X129562500Y-117250000D03*
X129562500Y-119150000D03*
X131437500Y-118200000D03*
%TD*%
D31*
%TO.C,D1*%
X127910000Y-113135000D03*
X129785000Y-113135000D03*
%TD*%
D20*
%TO.C,R5*%
X135610000Y-82655000D03*
X137435000Y-82655000D03*
%TD*%
D32*
%TO.C,BT1*%
X155200000Y-91000000D03*
D33*
X134400000Y-91000000D03*
%TD*%
M02*
