%TF.GenerationSoftware,KiCad,Pcbnew,9.0.7*%
%TF.CreationDate,2026-04-17T14:46:00+02:00*%
%TF.ProjectId,05_pcb,30355f70-6362-42e6-9b69-6361645f7063,rev?*%
%TF.SameCoordinates,Original*%
%TF.FileFunction,Copper,L2,Bot*%
%TF.FilePolarity,Positive*%
%FSLAX46Y46*%
G04 Gerber Fmt 4.6, Leading zero omitted, Abs format (unit mm)*
G04 Created by KiCad (PCBNEW 9.0.7) date 2026-04-17 14:46:00*
%MOMM*%
%LPD*%
G01*
G04 APERTURE LIST*
G04 Aperture macros list*
%AMRoundRect*
0 Rectangle with rounded corners*
0 $1 Rounding radius*
0 $2 $3 $4 $5 $6 $7 $8 $9 X,Y pos of 4 corners*
0 Add a 4 corners polygon primitive as box body*
4,1,4,$2,$3,$4,$5,$6,$7,$8,$9,$2,$3,0*
0 Add four circle primitives for the rounded corners*
1,1,$1+$1,$2,$3*
1,1,$1+$1,$4,$5*
1,1,$1+$1,$6,$7*
1,1,$1+$1,$8,$9*
0 Add four rect primitives between the rounded corners*
20,1,$1+$1,$2,$3,$4,$5,0*
20,1,$1+$1,$4,$5,$6,$7,0*
20,1,$1+$1,$6,$7,$8,$9,0*
20,1,$1+$1,$8,$9,$2,$3,0*%
G04 Aperture macros list end*
%TA.AperFunction,HeatsinkPad*%
%ADD10O,1.600000X1.000000*%
%TD*%
%TA.AperFunction,HeatsinkPad*%
%ADD11O,2.100000X1.000000*%
%TD*%
%TA.AperFunction,ComponentPad*%
%ADD12RoundRect,0.250000X-0.550000X0.550000X-0.550000X-0.550000X0.550000X-0.550000X0.550000X0.550000X0*%
%TD*%
%TA.AperFunction,ComponentPad*%
%ADD13C,1.600000*%
%TD*%
%TA.AperFunction,ComponentPad*%
%ADD14R,1.700000X1.700000*%
%TD*%
%TA.AperFunction,ComponentPad*%
%ADD15O,1.700000X1.700000*%
%TD*%
%TA.AperFunction,ComponentPad*%
%ADD16R,2.000000X2.000000*%
%TD*%
%TA.AperFunction,ComponentPad*%
%ADD17C,2.000000*%
%TD*%
%TA.AperFunction,ViaPad*%
%ADD18C,0.600000*%
%TD*%
%TA.AperFunction,Conductor*%
%ADD19C,0.500000*%
%TD*%
%TA.AperFunction,Conductor*%
%ADD20C,0.200000*%
%TD*%
%TA.AperFunction,Conductor*%
%ADD21C,0.300000*%
%TD*%
G04 APERTURE END LIST*
D10*
%TO.P,J2,S1,SHIELD*%
%TO.N,GND*%
X128925000Y-108920000D03*
D11*
X133105000Y-108920000D03*
D10*
X128925000Y-100280000D03*
D11*
X133105000Y-100280000D03*
%TD*%
D12*
%TO.P,SW1,1,A*%
%TO.N,Vbat*%
X156600000Y-111800000D03*
D13*
%TO.P,SW1,2,B*%
%TO.N,Net-(SW1A-B)*%
X156600000Y-119420000D03*
%TD*%
D14*
%TO.P,J1,1,Pin_1*%
%TO.N,Vcc*%
X129180000Y-78200000D03*
D15*
%TO.P,J1,2,Pin_2*%
%TO.N,GND*%
X129180000Y-80740000D03*
%TO.P,J1,3,Pin_3*%
%TO.N,SCL*%
X129180000Y-83280000D03*
%TO.P,J1,4,Pin_4*%
%TO.N,SDA*%
X129180000Y-85820000D03*
%TO.P,J1,5,Pin_5*%
%TO.N,unconnected-(J1-Pin_5-Pad5)*%
X129180000Y-88360000D03*
%TO.P,J1,6,Pin_6*%
%TO.N,unconnected-(J1-Pin_6-Pad6)*%
X129180000Y-90900000D03*
%TO.P,J1,7,Pin_7*%
%TO.N,GND*%
X129180000Y-93440000D03*
%TO.P,J1,8,Pin_8*%
%TO.N,INT*%
X129180000Y-95980000D03*
%TD*%
D16*
%TO.P,BT1,1,+*%
%TO.N,Vbat*%
X155200000Y-91000000D03*
D17*
%TO.P,BT1,2,-*%
%TO.N,GND*%
X134400000Y-91000000D03*
%TD*%
D18*
%TO.N,D+*%
X135400000Y-104200000D03*
%TO.N,D-*%
X135200000Y-98600000D03*
%TO.N,Net-(U4-PROG)*%
X143100000Y-104200000D03*
X144600000Y-105400000D03*
%TO.N,GND*%
X157800000Y-97000000D03*
X157300000Y-94300000D03*
X157600000Y-91700000D03*
X157200000Y-92700000D03*
X158300000Y-85200000D03*
X155000000Y-83500000D03*
X158200000Y-81300000D03*
X158000000Y-82900000D03*
X157900000Y-86500000D03*
X154800000Y-87200000D03*
X154700000Y-85300000D03*
X154400000Y-81900000D03*
X151600000Y-75900000D03*
X150000000Y-76000000D03*
X131300000Y-76000000D03*
X132900000Y-75900000D03*
X134900000Y-75900000D03*
X139800000Y-79400000D03*
X131600000Y-87400000D03*
X133400000Y-84300000D03*
X131700000Y-85600000D03*
X131400000Y-80100000D03*
X131300000Y-81000000D03*
X157900000Y-99000000D03*
X158100000Y-101500000D03*
X158100000Y-105300000D03*
X155400000Y-108400000D03*
X152600000Y-107600000D03*
X152900000Y-110800000D03*
X133200000Y-116900000D03*
X140100000Y-117700000D03*
X140300000Y-116600000D03*
X138400000Y-117600000D03*
X130300000Y-110700000D03*
X135300000Y-111900000D03*
X135600000Y-109800000D03*
%TO.N,Vbat*%
X154400000Y-111865000D03*
%TO.N,RST*%
X150690000Y-93455000D03*
X145700000Y-76400000D03*
X150690000Y-96955000D03*
X152300000Y-79100000D03*
%TO.N,Net-(J2-CC1)*%
X135990000Y-103517000D03*
X146110000Y-102975000D03*
%TO.N,D+*%
X136590000Y-97355000D03*
%TO.N,Net-(J2-CC2)*%
X135100000Y-105800000D03*
X129090000Y-107055000D03*
%TO.N,D-*%
X136690000Y-98455000D03*
%TO.N,RX*%
X144690000Y-80455000D03*
X139290000Y-83955000D03*
%TO.N,Net-(U3-RXD)*%
X137990000Y-79065000D03*
X136090000Y-94055000D03*
%TO.N,CS*%
X142000000Y-112600000D03*
X145600000Y-89300000D03*
%TO.N,SDA*%
X135364204Y-79529127D03*
X147100000Y-75300000D03*
%TO.N,SCL*%
X134590037Y-78754963D03*
X146290000Y-75155000D03*
%TO.N,MISO*%
X143590000Y-113155000D03*
X148890000Y-88355000D03*
%TO.N,MOSI*%
X148190000Y-118355000D03*
X148698746Y-87578195D03*
%TO.N,INT*%
X135940037Y-80104963D03*
X141790000Y-77655000D03*
%TO.N,CLK*%
X148490000Y-116155000D03*
X152590000Y-85255000D03*
%TO.N,Vcc*%
X143862424Y-110104998D03*
X149590000Y-112915000D03*
X140290000Y-111355000D03*
X151290000Y-110815000D03*
%TD*%
D19*
%TO.N,Vbat*%
X154400000Y-111865000D02*
X154400000Y-111205000D01*
X154400000Y-111205000D02*
X156700000Y-108905000D01*
X156700000Y-108905000D02*
X156700000Y-97475000D01*
X156700000Y-97475000D02*
X155100000Y-95875000D01*
X155100000Y-95875000D02*
X155100000Y-91100000D01*
X155100000Y-91100000D02*
X155200000Y-91000000D01*
D20*
%TO.N,Net-(J2-CC2)*%
X135100000Y-105800000D02*
X133200000Y-105800000D01*
X132971008Y-106028992D02*
X132971008Y-106600000D01*
X132971008Y-106600000D02*
X131600000Y-106600000D01*
X131600000Y-106600000D02*
X131300000Y-106900000D01*
X133200000Y-105800000D02*
X132971008Y-106028992D01*
X131300000Y-106900000D02*
X130800000Y-106900000D01*
X130800000Y-106900000D02*
X130500000Y-107200000D01*
X130500000Y-107200000D02*
X129235000Y-107200000D01*
X129235000Y-107200000D02*
X129090000Y-107055000D01*
%TO.N,D+*%
X135400000Y-100995453D02*
X135400000Y-104200000D01*
X133504547Y-99100000D02*
X135400000Y-100995453D01*
X133400000Y-99100000D02*
X133504547Y-99100000D01*
%TO.N,D-*%
X135200000Y-98600000D02*
X135461450Y-98338550D01*
X135461450Y-98338550D02*
X136573550Y-98338550D01*
X136573550Y-98338550D02*
X136690000Y-98455000D01*
D21*
%TO.N,Net-(U4-PROG)*%
X144300000Y-105400000D02*
X143100000Y-104200000D01*
X144600000Y-105400000D02*
X144300000Y-105400000D01*
D20*
%TO.N,RST*%
X149600000Y-76400000D02*
X152300000Y-79100000D01*
X150690000Y-93455000D02*
X150690000Y-96955000D01*
X145700000Y-76400000D02*
X149600000Y-76400000D01*
%TO.N,Net-(J2-CC1)*%
X146110000Y-102975000D02*
X145568000Y-103517000D01*
X145568000Y-103517000D02*
X135990000Y-103517000D01*
%TO.N,RX*%
X142790000Y-80455000D02*
X139290000Y-83955000D01*
X144690000Y-80455000D02*
X142790000Y-80455000D01*
%TO.N,Net-(U3-RXD)*%
X137990000Y-89055000D02*
X136090000Y-90955000D01*
X137990000Y-79065000D02*
X137990000Y-89055000D01*
X136090000Y-90955000D02*
X136090000Y-94055000D01*
%TO.N,CS*%
X142114127Y-112600000D02*
X142000000Y-112600000D01*
X146638000Y-90338000D02*
X146638000Y-108076127D01*
X146638000Y-108076127D02*
X142114127Y-112600000D01*
X145600000Y-89300000D02*
X146638000Y-90338000D01*
%TO.N,SDA*%
X146545000Y-75855000D02*
X137390000Y-75855000D01*
X135364204Y-77880796D02*
X135364204Y-79529127D01*
X147100000Y-75300000D02*
X146545000Y-75855000D01*
X137390000Y-75855000D02*
X135364204Y-77880796D01*
%TO.N,SCL*%
X137190000Y-75355000D02*
X134890037Y-77654963D01*
X144490000Y-75355000D02*
X137190000Y-75355000D01*
X146290000Y-75155000D02*
X144690000Y-75155000D01*
X144690000Y-75155000D02*
X144490000Y-75355000D01*
X134890037Y-78454963D02*
X134590037Y-78754963D01*
X134890037Y-77654963D02*
X134890037Y-78454963D01*
%TO.N,MISO*%
X147990000Y-107455000D02*
X147990000Y-89255000D01*
X143590000Y-113155000D02*
X143590000Y-111855000D01*
X143590000Y-111855000D02*
X147990000Y-107455000D01*
X147990000Y-89255000D02*
X148890000Y-88355000D01*
%TO.N,MOSI*%
X147889000Y-118054000D02*
X148190000Y-118355000D01*
X147889000Y-112374693D02*
X147889000Y-118054000D01*
X149490000Y-87755000D02*
X150090000Y-88355000D01*
X150090000Y-110173693D02*
X147889000Y-112374693D01*
X148875551Y-87755000D02*
X149490000Y-87755000D01*
X150090000Y-88355000D02*
X150090000Y-110173693D01*
X148698746Y-87578195D02*
X148875551Y-87755000D01*
%TO.N,INT*%
X138390000Y-77655000D02*
X141790000Y-77655000D01*
X135940037Y-80104963D02*
X138390000Y-77655000D01*
%TO.N,CLK*%
X148490000Y-116155000D02*
X148490000Y-112340793D01*
X151290000Y-87855000D02*
X152490000Y-86655000D01*
X148490000Y-112340793D02*
X151075793Y-109755000D01*
X151075793Y-109755000D02*
X151290000Y-109755000D01*
X152490000Y-86655000D02*
X152490000Y-86255000D01*
X152490000Y-86255000D02*
X152590000Y-86155000D01*
X152590000Y-86155000D02*
X152590000Y-85255000D01*
X151290000Y-109755000D02*
X151290000Y-87855000D01*
D19*
%TO.N,Vcc*%
X140290000Y-111355000D02*
X142612422Y-111355000D01*
X149590000Y-112515000D02*
X149590000Y-112915000D01*
X142612422Y-111355000D02*
X143862424Y-110104998D01*
X151290000Y-110815000D02*
X149590000Y-112515000D01*
D20*
%TO.N,D+*%
X133400000Y-99100000D02*
X133545000Y-98955000D01*
X133545000Y-98955000D02*
X133690000Y-98955000D01*
X133690000Y-98955000D02*
X135290000Y-97355000D01*
X135290000Y-97355000D02*
X136590000Y-97355000D01*
%TD*%
%TA.AperFunction,Conductor*%
%TO.N,GND*%
G36*
X159185148Y-73914852D02*
G01*
X159199500Y-73949500D01*
X159199500Y-120450500D01*
X159185148Y-120485148D01*
X159150500Y-120499500D01*
X126849500Y-120499500D01*
X126814852Y-120485148D01*
X126800500Y-120450500D01*
X126800500Y-119328649D01*
X155672500Y-119328649D01*
X155672500Y-119511351D01*
X155696153Y-119630265D01*
X155708142Y-119690539D01*
X155708145Y-119690549D01*
X155778057Y-119859330D01*
X155778058Y-119859332D01*
X155778060Y-119859336D01*
X155829154Y-119935803D01*
X155879561Y-120011244D01*
X156008755Y-120140438D01*
X156059048Y-120174042D01*
X156160664Y-120241940D01*
X156160669Y-120241942D01*
X156329450Y-120311854D01*
X156329452Y-120311854D01*
X156329458Y-120311857D01*
X156508649Y-120347500D01*
X156508652Y-120347500D01*
X156691348Y-120347500D01*
X156691351Y-120347500D01*
X156870542Y-120311857D01*
X157039336Y-120241940D01*
X157191247Y-120140436D01*
X157320436Y-120011247D01*
X157421940Y-119859336D01*
X157491857Y-119690542D01*
X157527500Y-119511351D01*
X157527500Y-119328649D01*
X157491857Y-119149458D01*
X157421940Y-118980664D01*
X157354042Y-118879048D01*
X157320438Y-118828755D01*
X157191244Y-118699561D01*
X157115803Y-118649154D01*
X157039336Y-118598060D01*
X157039332Y-118598058D01*
X157039330Y-118598057D01*
X156870549Y-118528145D01*
X156870539Y-118528142D01*
X156798277Y-118513768D01*
X156691351Y-118492500D01*
X156508649Y-118492500D01*
X156419463Y-118510240D01*
X156329460Y-118528142D01*
X156329450Y-118528145D01*
X156160669Y-118598057D01*
X156160665Y-118598059D01*
X156160664Y-118598060D01*
X156134833Y-118615319D01*
X156008755Y-118699561D01*
X155879561Y-118828755D01*
X155778057Y-118980669D01*
X155708145Y-119149450D01*
X155708142Y-119149460D01*
X155690240Y-119239463D01*
X155672500Y-119328649D01*
X126800500Y-119328649D01*
X126800500Y-108841005D01*
X128025000Y-108841005D01*
X128025000Y-108870000D01*
X128327814Y-108870000D01*
X128325000Y-108880504D01*
X128325000Y-108959496D01*
X128327814Y-108970000D01*
X128025000Y-108970000D01*
X128025000Y-108998994D01*
X128065888Y-109151589D01*
X128065889Y-109151592D01*
X128144881Y-109288408D01*
X128256591Y-109400118D01*
X128393407Y-109479110D01*
X128393410Y-109479111D01*
X128546005Y-109519999D01*
X128546006Y-109520000D01*
X128875000Y-109520000D01*
X128875000Y-109220000D01*
X128975000Y-109220000D01*
X128975000Y-109520000D01*
X129303994Y-109520000D01*
X129303994Y-109519999D01*
X129456589Y-109479111D01*
X129456592Y-109479110D01*
X129593408Y-109400118D01*
X129593409Y-109400118D01*
X129705118Y-109288409D01*
X129705118Y-109288408D01*
X129784110Y-109151592D01*
X129784111Y-109151589D01*
X129824999Y-108998994D01*
X129825000Y-108998994D01*
X129825000Y-108970000D01*
X129522186Y-108970000D01*
X129525000Y-108959496D01*
X129525000Y-108880504D01*
X129522186Y-108870000D01*
X129825000Y-108870000D01*
X129825000Y-108841006D01*
X129824999Y-108841005D01*
X131955000Y-108841005D01*
X131955000Y-108870000D01*
X132257814Y-108870000D01*
X132255000Y-108880504D01*
X132255000Y-108959496D01*
X132257814Y-108970000D01*
X131955000Y-108970000D01*
X131955000Y-108998994D01*
X131995888Y-109151589D01*
X131995889Y-109151592D01*
X132074881Y-109288408D01*
X132186591Y-109400118D01*
X132323407Y-109479110D01*
X132323410Y-109479111D01*
X132476005Y-109519999D01*
X132476006Y-109520000D01*
X133055000Y-109520000D01*
X133055000Y-109220000D01*
X133155000Y-109220000D01*
X133155000Y-109520000D01*
X133733994Y-109520000D01*
X133733994Y-109519999D01*
X133886589Y-109479111D01*
X133886592Y-109479110D01*
X134023408Y-109400118D01*
X134023409Y-109400118D01*
X134135118Y-109288409D01*
X134135118Y-109288408D01*
X134214110Y-109151592D01*
X134214111Y-109151589D01*
X134254999Y-108998994D01*
X134255000Y-108998994D01*
X134255000Y-108970000D01*
X133952186Y-108970000D01*
X133955000Y-108959496D01*
X133955000Y-108880504D01*
X133952186Y-108870000D01*
X134255000Y-108870000D01*
X134255000Y-108841006D01*
X134254999Y-108841005D01*
X134214111Y-108688410D01*
X134214110Y-108688407D01*
X134135118Y-108551591D01*
X134023408Y-108439881D01*
X133886592Y-108360889D01*
X133886589Y-108360888D01*
X133733994Y-108320000D01*
X133155000Y-108320000D01*
X133155000Y-108620000D01*
X133055000Y-108620000D01*
X133055000Y-108320000D01*
X132476006Y-108320000D01*
X132323410Y-108360888D01*
X132323407Y-108360889D01*
X132186591Y-108439881D01*
X132186591Y-108439882D01*
X132074882Y-108551591D01*
X132074881Y-108551591D01*
X131995889Y-108688407D01*
X131995888Y-108688410D01*
X131955000Y-108841005D01*
X129824999Y-108841005D01*
X129784111Y-108688410D01*
X129784110Y-108688407D01*
X129705118Y-108551591D01*
X129593408Y-108439881D01*
X129456592Y-108360889D01*
X129456589Y-108360888D01*
X129303994Y-108320000D01*
X128975000Y-108320000D01*
X128975000Y-108620000D01*
X128875000Y-108620000D01*
X128875000Y-108320000D01*
X128546006Y-108320000D01*
X128393410Y-108360888D01*
X128393407Y-108360889D01*
X128256591Y-108439881D01*
X128256591Y-108439882D01*
X128144882Y-108551591D01*
X128144881Y-108551591D01*
X128065889Y-108688407D01*
X128065888Y-108688410D01*
X128025000Y-108841005D01*
X126800500Y-108841005D01*
X126800500Y-106998715D01*
X128662500Y-106998715D01*
X128662500Y-107111284D01*
X128691632Y-107220008D01*
X128691633Y-107220011D01*
X128747911Y-107317485D01*
X128747913Y-107317487D01*
X128747915Y-107317491D01*
X128827509Y-107397085D01*
X128827513Y-107397087D01*
X128827514Y-107397088D01*
X128924988Y-107453366D01*
X128924991Y-107453367D01*
X129033715Y-107482499D01*
X129033716Y-107482500D01*
X129033719Y-107482500D01*
X129146284Y-107482500D01*
X129146284Y-107482499D01*
X129255009Y-107453367D01*
X129288441Y-107434064D01*
X129312940Y-107427500D01*
X130545251Y-107427500D01*
X130545253Y-107427500D01*
X130628868Y-107392865D01*
X130879881Y-107141852D01*
X130914529Y-107127500D01*
X131345251Y-107127500D01*
X131345253Y-107127500D01*
X131428868Y-107092865D01*
X131679881Y-106841852D01*
X131714529Y-106827500D01*
X132481729Y-106827500D01*
X132516377Y-106841852D01*
X132530729Y-106876500D01*
X132516377Y-106911148D01*
X132494411Y-106923830D01*
X132382866Y-106953718D01*
X132382862Y-106953719D01*
X132251634Y-107029485D01*
X132251634Y-107029486D01*
X132144486Y-107136634D01*
X132144485Y-107136634D01*
X132068719Y-107267862D01*
X132068718Y-107267866D01*
X132029500Y-107414230D01*
X132029500Y-107565769D01*
X132068718Y-107712133D01*
X132068719Y-107712137D01*
X132144485Y-107843365D01*
X132251635Y-107950515D01*
X132270830Y-107961597D01*
X132382862Y-108026280D01*
X132382864Y-108026280D01*
X132382865Y-108026281D01*
X132400007Y-108030874D01*
X132529230Y-108065499D01*
X132529231Y-108065500D01*
X132529234Y-108065500D01*
X132680769Y-108065500D01*
X132680769Y-108065499D01*
X132827135Y-108026281D01*
X132958365Y-107950515D01*
X133065515Y-107843365D01*
X133141281Y-107712135D01*
X133180499Y-107565769D01*
X133180500Y-107565769D01*
X133180500Y-107414231D01*
X133180499Y-107414230D01*
X133141281Y-107267866D01*
X133141280Y-107267862D01*
X133065514Y-107136634D01*
X132958365Y-107029485D01*
X132827137Y-106953719D01*
X132827133Y-106953718D01*
X132715589Y-106923830D01*
X132685836Y-106901000D01*
X132680941Y-106863818D01*
X132703771Y-106834065D01*
X132728271Y-106827500D01*
X133016259Y-106827500D01*
X133016261Y-106827500D01*
X133099876Y-106792865D01*
X133099878Y-106792863D01*
X133099879Y-106792863D01*
X133163871Y-106728871D01*
X133163871Y-106728870D01*
X133163873Y-106728868D01*
X133198508Y-106645253D01*
X133198508Y-106143521D01*
X133212860Y-106108873D01*
X133279882Y-106041852D01*
X133314530Y-106027500D01*
X134709423Y-106027500D01*
X134744071Y-106041852D01*
X134751855Y-106051996D01*
X134757915Y-106062491D01*
X134837509Y-106142085D01*
X134837513Y-106142087D01*
X134837514Y-106142088D01*
X134934988Y-106198366D01*
X134934991Y-106198367D01*
X135043715Y-106227499D01*
X135043716Y-106227500D01*
X135043719Y-106227500D01*
X135156284Y-106227500D01*
X135156284Y-106227499D01*
X135265009Y-106198367D01*
X135362491Y-106142085D01*
X135442085Y-106062491D01*
X135498367Y-105965009D01*
X135527499Y-105856284D01*
X135527500Y-105856284D01*
X135527500Y-105743716D01*
X135527499Y-105743715D01*
X135498367Y-105634991D01*
X135498366Y-105634988D01*
X135442088Y-105537514D01*
X135442087Y-105537513D01*
X135442085Y-105537509D01*
X135362491Y-105457915D01*
X135362487Y-105457913D01*
X135362485Y-105457911D01*
X135265011Y-105401633D01*
X135265008Y-105401632D01*
X135156284Y-105372500D01*
X135156281Y-105372500D01*
X135043719Y-105372500D01*
X135043716Y-105372500D01*
X134934991Y-105401632D01*
X134934988Y-105401633D01*
X134837514Y-105457911D01*
X134837505Y-105457918D01*
X134757917Y-105537506D01*
X134757915Y-105537508D01*
X134757915Y-105537509D01*
X134751857Y-105548001D01*
X134722104Y-105570831D01*
X134709423Y-105572500D01*
X133154745Y-105572500D01*
X133138420Y-105579262D01*
X133130257Y-105582644D01*
X133071131Y-105607134D01*
X133071129Y-105607135D01*
X132842140Y-105836127D01*
X132778144Y-105900121D01*
X132778144Y-105900122D01*
X132743508Y-105983737D01*
X132743508Y-106323500D01*
X132729156Y-106358148D01*
X132694508Y-106372500D01*
X131554745Y-106372500D01*
X131471130Y-106407136D01*
X131471129Y-106407136D01*
X131220119Y-106658148D01*
X131185471Y-106672500D01*
X130754745Y-106672500D01*
X130671130Y-106707136D01*
X130671129Y-106707136D01*
X130420119Y-106958148D01*
X130385471Y-106972500D01*
X129548074Y-106972500D01*
X129513426Y-106958148D01*
X129500744Y-106936182D01*
X129488367Y-106889991D01*
X129488366Y-106889988D01*
X129432088Y-106792514D01*
X129432087Y-106792513D01*
X129432085Y-106792509D01*
X129352491Y-106712915D01*
X129352487Y-106712913D01*
X129352485Y-106712911D01*
X129255011Y-106656633D01*
X129255008Y-106656632D01*
X129146284Y-106627500D01*
X129146281Y-106627500D01*
X129033719Y-106627500D01*
X129033716Y-106627500D01*
X128924991Y-106656632D01*
X128924988Y-106656633D01*
X128827514Y-106712911D01*
X128827505Y-106712918D01*
X128747918Y-106792505D01*
X128747911Y-106792514D01*
X128691633Y-106889988D01*
X128691632Y-106889991D01*
X128662500Y-106998715D01*
X126800500Y-106998715D01*
X126800500Y-101634230D01*
X132029500Y-101634230D01*
X132029500Y-101785769D01*
X132068718Y-101932133D01*
X132068719Y-101932137D01*
X132144485Y-102063365D01*
X132251635Y-102170515D01*
X132299666Y-102198246D01*
X132382862Y-102246280D01*
X132382864Y-102246280D01*
X132382865Y-102246281D01*
X132498303Y-102277212D01*
X132529230Y-102285499D01*
X132529231Y-102285500D01*
X132529234Y-102285500D01*
X132680769Y-102285500D01*
X132680769Y-102285499D01*
X132827135Y-102246281D01*
X132958365Y-102170515D01*
X133065515Y-102063365D01*
X133141281Y-101932135D01*
X133180499Y-101785769D01*
X133180500Y-101785769D01*
X133180500Y-101634231D01*
X133180499Y-101634230D01*
X133141281Y-101487866D01*
X133141280Y-101487862D01*
X133065514Y-101356634D01*
X132958365Y-101249485D01*
X132827137Y-101173719D01*
X132827133Y-101173718D01*
X132680769Y-101134500D01*
X132680766Y-101134500D01*
X132529234Y-101134500D01*
X132529231Y-101134500D01*
X132382866Y-101173718D01*
X132382862Y-101173719D01*
X132251634Y-101249485D01*
X132251634Y-101249486D01*
X132144486Y-101356634D01*
X132144485Y-101356634D01*
X132068719Y-101487862D01*
X132068718Y-101487866D01*
X132029500Y-101634230D01*
X126800500Y-101634230D01*
X126800500Y-100201005D01*
X128025000Y-100201005D01*
X128025000Y-100230000D01*
X128327814Y-100230000D01*
X128325000Y-100240504D01*
X128325000Y-100319496D01*
X128327814Y-100330000D01*
X128025000Y-100330000D01*
X128025000Y-100358994D01*
X128065888Y-100511589D01*
X128065889Y-100511592D01*
X128144881Y-100648408D01*
X128256591Y-100760118D01*
X128393407Y-100839110D01*
X128393410Y-100839111D01*
X128546005Y-100879999D01*
X128546006Y-100880000D01*
X128875000Y-100880000D01*
X128875000Y-100580000D01*
X128975000Y-100580000D01*
X128975000Y-100880000D01*
X129303994Y-100880000D01*
X129303994Y-100879999D01*
X129456589Y-100839111D01*
X129456592Y-100839110D01*
X129593408Y-100760118D01*
X129593409Y-100760118D01*
X129705118Y-100648409D01*
X129705118Y-100648408D01*
X129784110Y-100511592D01*
X129784111Y-100511589D01*
X129824999Y-100358994D01*
X129825000Y-100358994D01*
X129825000Y-100330000D01*
X129522186Y-100330000D01*
X129525000Y-100319496D01*
X129525000Y-100240504D01*
X129522186Y-100230000D01*
X129825000Y-100230000D01*
X129825000Y-100201006D01*
X129824999Y-100201005D01*
X131955000Y-100201005D01*
X131955000Y-100230000D01*
X132257814Y-100230000D01*
X132255000Y-100240504D01*
X132255000Y-100319496D01*
X132257814Y-100330000D01*
X131955000Y-100330000D01*
X131955000Y-100358994D01*
X131995888Y-100511589D01*
X131995889Y-100511592D01*
X132074881Y-100648408D01*
X132186591Y-100760118D01*
X132323407Y-100839110D01*
X132323410Y-100839111D01*
X132476005Y-100879999D01*
X132476006Y-100880000D01*
X133055000Y-100880000D01*
X133055000Y-100580000D01*
X133155000Y-100580000D01*
X133155000Y-100880000D01*
X133733994Y-100880000D01*
X133733994Y-100879999D01*
X133886589Y-100839111D01*
X133886592Y-100839110D01*
X134023408Y-100760118D01*
X134023409Y-100760118D01*
X134135118Y-100648409D01*
X134135118Y-100648408D01*
X134214110Y-100511592D01*
X134214111Y-100511589D01*
X134254999Y-100358994D01*
X134255000Y-100358994D01*
X134255000Y-100330000D01*
X133952186Y-100330000D01*
X133955000Y-100319496D01*
X133955000Y-100240504D01*
X133952186Y-100230000D01*
X134263119Y-100230000D01*
X134283907Y-100221389D01*
X134318555Y-100235741D01*
X135158148Y-101075334D01*
X135172500Y-101109982D01*
X135172500Y-103809422D01*
X135158148Y-103844070D01*
X135148002Y-103851856D01*
X135137514Y-103857911D01*
X135137505Y-103857918D01*
X135057918Y-103937505D01*
X135057911Y-103937514D01*
X135001633Y-104034988D01*
X135001632Y-104034991D01*
X134972500Y-104143715D01*
X134972500Y-104256284D01*
X135001632Y-104365008D01*
X135001633Y-104365011D01*
X135057911Y-104462485D01*
X135057913Y-104462487D01*
X135057915Y-104462491D01*
X135137509Y-104542085D01*
X135137513Y-104542087D01*
X135137514Y-104542088D01*
X135234988Y-104598366D01*
X135234991Y-104598367D01*
X135343715Y-104627499D01*
X135343716Y-104627500D01*
X135343719Y-104627500D01*
X135456284Y-104627500D01*
X135456284Y-104627499D01*
X135565009Y-104598367D01*
X135662491Y-104542085D01*
X135742085Y-104462491D01*
X135798367Y-104365009D01*
X135827499Y-104256284D01*
X135827500Y-104256284D01*
X135827500Y-104143716D01*
X135827499Y-104143715D01*
X135798367Y-104034992D01*
X135798367Y-104034991D01*
X135770936Y-103987481D01*
X135766041Y-103950301D01*
X135788871Y-103920547D01*
X135826051Y-103915651D01*
X135826053Y-103915651D01*
X135826054Y-103915652D01*
X135933715Y-103944499D01*
X135933716Y-103944500D01*
X135933719Y-103944500D01*
X136046284Y-103944500D01*
X136046284Y-103944499D01*
X136155009Y-103915367D01*
X136252491Y-103859085D01*
X136332085Y-103779491D01*
X136338142Y-103768998D01*
X136367896Y-103746169D01*
X136380577Y-103744500D01*
X142851079Y-103744500D01*
X142885727Y-103758852D01*
X142900079Y-103793500D01*
X142885727Y-103828148D01*
X142875579Y-103835935D01*
X142837514Y-103857911D01*
X142837505Y-103857918D01*
X142757918Y-103937505D01*
X142757911Y-103937514D01*
X142701633Y-104034988D01*
X142701632Y-104034991D01*
X142672500Y-104143715D01*
X142672500Y-104256284D01*
X142701632Y-104365008D01*
X142701633Y-104365011D01*
X142757911Y-104462485D01*
X142757913Y-104462487D01*
X142757915Y-104462491D01*
X142837509Y-104542085D01*
X142837513Y-104542087D01*
X142837514Y-104542088D01*
X142934988Y-104598366D01*
X142934991Y-104598367D01*
X143043715Y-104627499D01*
X143043716Y-104627500D01*
X143043719Y-104627500D01*
X143114759Y-104627500D01*
X143149407Y-104641852D01*
X144076228Y-105568672D01*
X144076233Y-105568678D01*
X144077944Y-105570389D01*
X144129611Y-105622056D01*
X144192889Y-105658589D01*
X144192893Y-105658590D01*
X144263704Y-105677564D01*
X144285670Y-105690246D01*
X144337509Y-105742085D01*
X144337513Y-105742087D01*
X144337514Y-105742088D01*
X144434988Y-105798366D01*
X144434991Y-105798367D01*
X144543715Y-105827499D01*
X144543716Y-105827500D01*
X144543719Y-105827500D01*
X144656284Y-105827500D01*
X144656284Y-105827499D01*
X144765009Y-105798367D01*
X144862491Y-105742085D01*
X144942085Y-105662491D01*
X144998367Y-105565009D01*
X145027499Y-105456284D01*
X145027500Y-105456284D01*
X145027500Y-105343716D01*
X145027499Y-105343715D01*
X144998367Y-105234991D01*
X144998366Y-105234988D01*
X144942088Y-105137514D01*
X144942087Y-105137513D01*
X144942085Y-105137509D01*
X144862491Y-105057915D01*
X144862487Y-105057913D01*
X144862485Y-105057911D01*
X144765011Y-105001633D01*
X144765008Y-105001632D01*
X144656284Y-104972500D01*
X144656281Y-104972500D01*
X144543719Y-104972500D01*
X144543716Y-104972500D01*
X144434991Y-105001632D01*
X144434988Y-105001633D01*
X144378216Y-105034411D01*
X144341033Y-105039306D01*
X144319068Y-105026624D01*
X143934296Y-104641852D01*
X143541852Y-104249407D01*
X143527500Y-104214759D01*
X143527500Y-104143716D01*
X143527499Y-104143715D01*
X143498367Y-104034991D01*
X143498366Y-104034988D01*
X143442088Y-103937514D01*
X143442087Y-103937513D01*
X143442085Y-103937509D01*
X143362491Y-103857915D01*
X143362487Y-103857913D01*
X143362485Y-103857911D01*
X143324421Y-103835935D01*
X143301591Y-103806182D01*
X143306486Y-103769000D01*
X143336239Y-103746170D01*
X143348921Y-103744500D01*
X145613251Y-103744500D01*
X145613253Y-103744500D01*
X145696868Y-103709865D01*
X145994686Y-103412045D01*
X146029333Y-103397694D01*
X146042014Y-103399363D01*
X146053719Y-103402500D01*
X146166284Y-103402500D01*
X146166284Y-103402499D01*
X146275009Y-103373367D01*
X146337000Y-103337575D01*
X146374182Y-103332681D01*
X146403935Y-103355511D01*
X146410500Y-103380011D01*
X146410500Y-107961597D01*
X146396148Y-107996245D01*
X144361295Y-110031097D01*
X144326647Y-110045449D01*
X144291999Y-110031097D01*
X144279317Y-110009131D01*
X144272181Y-109982500D01*
X144260791Y-109939989D01*
X144260790Y-109939986D01*
X144204512Y-109842512D01*
X144204511Y-109842511D01*
X144204509Y-109842507D01*
X144124915Y-109762913D01*
X144124911Y-109762911D01*
X144124909Y-109762909D01*
X144027435Y-109706631D01*
X144027432Y-109706630D01*
X143918708Y-109677498D01*
X143918705Y-109677498D01*
X143806143Y-109677498D01*
X143806140Y-109677498D01*
X143697415Y-109706630D01*
X143697412Y-109706631D01*
X143599938Y-109762909D01*
X143599929Y-109762916D01*
X143520342Y-109842503D01*
X143520335Y-109842512D01*
X143464057Y-109939986D01*
X143464056Y-109939989D01*
X143456652Y-109967621D01*
X143443970Y-109989585D01*
X142470409Y-110963148D01*
X142435761Y-110977500D01*
X140504280Y-110977500D01*
X140479781Y-110970935D01*
X140455009Y-110956633D01*
X140455008Y-110956632D01*
X140346284Y-110927500D01*
X140346281Y-110927500D01*
X140233719Y-110927500D01*
X140233716Y-110927500D01*
X140124991Y-110956632D01*
X140124988Y-110956633D01*
X140027514Y-111012911D01*
X140027505Y-111012918D01*
X139947918Y-111092505D01*
X139947911Y-111092514D01*
X139891633Y-111189988D01*
X139891632Y-111189991D01*
X139862500Y-111298715D01*
X139862500Y-111411284D01*
X139891632Y-111520008D01*
X139891633Y-111520011D01*
X139947911Y-111617485D01*
X139947913Y-111617487D01*
X139947915Y-111617491D01*
X140027509Y-111697085D01*
X140027513Y-111697087D01*
X140027514Y-111697088D01*
X140124988Y-111753366D01*
X140124991Y-111753367D01*
X140233715Y-111782499D01*
X140233716Y-111782500D01*
X140233719Y-111782500D01*
X140346284Y-111782500D01*
X140346284Y-111782499D01*
X140455009Y-111753367D01*
X140479781Y-111739064D01*
X140504280Y-111732500D01*
X142541598Y-111732500D01*
X142576246Y-111746852D01*
X142590598Y-111781500D01*
X142576246Y-111816148D01*
X142205321Y-112187070D01*
X142170673Y-112201422D01*
X142157991Y-112199752D01*
X142056284Y-112172500D01*
X142056281Y-112172500D01*
X141943719Y-112172500D01*
X141943716Y-112172500D01*
X141834991Y-112201632D01*
X141834988Y-112201633D01*
X141737514Y-112257911D01*
X141737505Y-112257918D01*
X141657918Y-112337505D01*
X141657911Y-112337514D01*
X141601633Y-112434988D01*
X141601632Y-112434991D01*
X141572500Y-112543715D01*
X141572500Y-112656284D01*
X141601632Y-112765008D01*
X141601633Y-112765011D01*
X141657911Y-112862485D01*
X141657913Y-112862487D01*
X141657915Y-112862491D01*
X141737509Y-112942085D01*
X141737513Y-112942087D01*
X141737514Y-112942088D01*
X141834988Y-112998366D01*
X141834991Y-112998367D01*
X141943715Y-113027499D01*
X141943716Y-113027500D01*
X141943719Y-113027500D01*
X142056284Y-113027500D01*
X142056284Y-113027499D01*
X142165009Y-112998367D01*
X142179517Y-112989991D01*
X142189379Y-112984296D01*
X142262491Y-112942085D01*
X142342085Y-112862491D01*
X142398367Y-112765009D01*
X142427499Y-112656284D01*
X142427500Y-112656284D01*
X142427500Y-112628656D01*
X142441852Y-112594008D01*
X142854032Y-112181828D01*
X143284753Y-111751107D01*
X143319399Y-111736756D01*
X143354047Y-111751108D01*
X143368399Y-111785756D01*
X143364671Y-111804503D01*
X143362501Y-111809742D01*
X143362500Y-111809749D01*
X143362500Y-112764422D01*
X143348148Y-112799070D01*
X143338002Y-112806856D01*
X143327514Y-112812911D01*
X143327505Y-112812918D01*
X143247918Y-112892505D01*
X143247911Y-112892514D01*
X143191633Y-112989988D01*
X143191632Y-112989991D01*
X143162500Y-113098715D01*
X143162500Y-113211284D01*
X143191632Y-113320008D01*
X143191633Y-113320011D01*
X143247911Y-113417485D01*
X143247913Y-113417487D01*
X143247915Y-113417491D01*
X143327509Y-113497085D01*
X143327513Y-113497087D01*
X143327514Y-113497088D01*
X143424988Y-113553366D01*
X143424991Y-113553367D01*
X143533715Y-113582499D01*
X143533716Y-113582500D01*
X143533719Y-113582500D01*
X143646284Y-113582500D01*
X143646284Y-113582499D01*
X143755009Y-113553367D01*
X143852491Y-113497085D01*
X143932085Y-113417491D01*
X143988367Y-113320009D01*
X144017499Y-113211284D01*
X144017500Y-113211284D01*
X144017500Y-113098716D01*
X144017499Y-113098715D01*
X143988367Y-112989991D01*
X143988366Y-112989988D01*
X143932088Y-112892514D01*
X143932087Y-112892513D01*
X143932085Y-112892509D01*
X143852491Y-112812915D01*
X143852487Y-112812913D01*
X143852485Y-112812911D01*
X143841998Y-112806856D01*
X143819169Y-112777102D01*
X143817500Y-112764422D01*
X143817500Y-111969529D01*
X143831852Y-111934881D01*
X146003818Y-109762916D01*
X148182866Y-107583868D01*
X148217500Y-107500252D01*
X148217500Y-107409747D01*
X148217500Y-89369528D01*
X148231851Y-89334881D01*
X148774686Y-88792045D01*
X148809333Y-88777694D01*
X148822014Y-88779363D01*
X148833719Y-88782500D01*
X148946284Y-88782500D01*
X148946284Y-88782499D01*
X149055009Y-88753367D01*
X149152491Y-88697085D01*
X149232085Y-88617491D01*
X149288367Y-88520009D01*
X149317499Y-88411284D01*
X149317500Y-88411284D01*
X149317500Y-88298716D01*
X149317499Y-88298715D01*
X149288367Y-88189991D01*
X149288366Y-88189988D01*
X149232088Y-88092514D01*
X149232087Y-88092513D01*
X149232085Y-88092509D01*
X149205724Y-88066148D01*
X149191372Y-88031500D01*
X149205724Y-87996852D01*
X149240372Y-87982500D01*
X149375471Y-87982500D01*
X149410119Y-87996852D01*
X149848148Y-88434881D01*
X149862500Y-88469529D01*
X149862500Y-110059164D01*
X149848148Y-110093812D01*
X147760132Y-112181828D01*
X147696136Y-112245822D01*
X147696136Y-112245823D01*
X147661500Y-112329438D01*
X147661500Y-112329440D01*
X147661500Y-118008747D01*
X147661500Y-118099253D01*
X147696135Y-118182868D01*
X147696136Y-118182869D01*
X147696137Y-118182871D01*
X147752952Y-118239686D01*
X147767304Y-118274334D01*
X147765635Y-118287012D01*
X147762500Y-118298714D01*
X147762500Y-118411284D01*
X147791632Y-118520008D01*
X147791633Y-118520011D01*
X147847911Y-118617485D01*
X147847913Y-118617487D01*
X147847915Y-118617491D01*
X147927509Y-118697085D01*
X147927513Y-118697087D01*
X147927514Y-118697088D01*
X148024988Y-118753366D01*
X148024991Y-118753367D01*
X148133715Y-118782499D01*
X148133716Y-118782500D01*
X148133719Y-118782500D01*
X148246284Y-118782500D01*
X148246284Y-118782499D01*
X148355009Y-118753367D01*
X148452491Y-118697085D01*
X148532085Y-118617491D01*
X148588367Y-118520009D01*
X148617499Y-118411284D01*
X148617500Y-118411284D01*
X148617500Y-118298716D01*
X148617499Y-118298715D01*
X148588367Y-118189991D01*
X148588366Y-118189988D01*
X148532088Y-118092514D01*
X148532087Y-118092513D01*
X148532085Y-118092509D01*
X148452491Y-118012915D01*
X148452487Y-118012913D01*
X148452485Y-118012911D01*
X148355011Y-117956633D01*
X148355008Y-117956632D01*
X148246284Y-117927500D01*
X148246281Y-117927500D01*
X148165500Y-117927500D01*
X148130852Y-117913148D01*
X148116500Y-117878500D01*
X148116500Y-116504372D01*
X148130852Y-116469724D01*
X148165500Y-116455372D01*
X148200148Y-116469724D01*
X148227509Y-116497085D01*
X148227513Y-116497087D01*
X148227514Y-116497088D01*
X148324988Y-116553366D01*
X148324991Y-116553367D01*
X148433715Y-116582499D01*
X148433716Y-116582500D01*
X148433719Y-116582500D01*
X148546284Y-116582500D01*
X148546284Y-116582499D01*
X148655009Y-116553367D01*
X148752491Y-116497085D01*
X148832085Y-116417491D01*
X148888367Y-116320009D01*
X148917499Y-116211284D01*
X148917500Y-116211284D01*
X148917500Y-116098716D01*
X148917499Y-116098715D01*
X148888367Y-115989991D01*
X148888366Y-115989988D01*
X148832088Y-115892514D01*
X148832087Y-115892513D01*
X148832085Y-115892509D01*
X148752491Y-115812915D01*
X148752487Y-115812913D01*
X148752485Y-115812911D01*
X148741998Y-115806856D01*
X148719169Y-115777102D01*
X148717500Y-115764422D01*
X148717500Y-112858715D01*
X149162500Y-112858715D01*
X149162500Y-112971284D01*
X149191632Y-113080008D01*
X149191633Y-113080011D01*
X149247911Y-113177485D01*
X149247913Y-113177487D01*
X149247915Y-113177491D01*
X149327509Y-113257085D01*
X149327513Y-113257087D01*
X149327514Y-113257088D01*
X149424988Y-113313366D01*
X149424991Y-113313367D01*
X149533715Y-113342499D01*
X149533716Y-113342500D01*
X149533719Y-113342500D01*
X149646284Y-113342500D01*
X149646284Y-113342499D01*
X149755009Y-113313367D01*
X149852491Y-113257085D01*
X149932085Y-113177491D01*
X149988367Y-113080009D01*
X150017499Y-112971284D01*
X150017500Y-112971284D01*
X150017500Y-112858716D01*
X150017499Y-112858715D01*
X149995631Y-112777102D01*
X149988367Y-112749991D01*
X149974065Y-112725219D01*
X149967500Y-112700719D01*
X149967500Y-112691660D01*
X149981851Y-112657013D01*
X150830148Y-111808715D01*
X153972500Y-111808715D01*
X153972500Y-111921284D01*
X154001632Y-112030008D01*
X154001633Y-112030011D01*
X154057911Y-112127485D01*
X154057913Y-112127487D01*
X154057915Y-112127491D01*
X154137509Y-112207085D01*
X154137513Y-112207087D01*
X154137514Y-112207088D01*
X154234988Y-112263366D01*
X154234991Y-112263367D01*
X154343715Y-112292499D01*
X154343716Y-112292500D01*
X154343719Y-112292500D01*
X154456284Y-112292500D01*
X154456284Y-112292499D01*
X154565009Y-112263367D01*
X154662491Y-112207085D01*
X154742085Y-112127491D01*
X154798367Y-112030009D01*
X154827499Y-111921284D01*
X154827500Y-111921284D01*
X154827500Y-111808716D01*
X154827499Y-111808715D01*
X154798368Y-111699995D01*
X154798367Y-111699991D01*
X154784065Y-111675219D01*
X154777500Y-111650719D01*
X154777500Y-111381661D01*
X154791852Y-111347013D01*
X154924694Y-111214171D01*
X155672500Y-111214171D01*
X155672500Y-112385829D01*
X155683190Y-112459203D01*
X155683190Y-112459204D01*
X155720918Y-112536377D01*
X155738524Y-112572390D01*
X155827610Y-112661476D01*
X155940796Y-112716809D01*
X156014173Y-112727500D01*
X157185826Y-112727499D01*
X157185829Y-112727499D01*
X157240859Y-112719481D01*
X157259204Y-112716809D01*
X157372390Y-112661476D01*
X157461476Y-112572390D01*
X157516809Y-112459204D01*
X157527500Y-112385827D01*
X157527499Y-111214174D01*
X157527499Y-111214171D01*
X157527499Y-111214170D01*
X157516809Y-111140796D01*
X157516809Y-111140795D01*
X157493201Y-111092505D01*
X157461476Y-111027610D01*
X157372390Y-110938524D01*
X157315797Y-110910857D01*
X157259207Y-110883192D01*
X157259205Y-110883191D01*
X157185828Y-110872500D01*
X156014170Y-110872500D01*
X155940796Y-110883190D01*
X155940795Y-110883190D01*
X155827612Y-110938523D01*
X155827608Y-110938525D01*
X155738525Y-111027608D01*
X155738523Y-111027612D01*
X155683192Y-111140792D01*
X155683191Y-111140794D01*
X155672500Y-111214171D01*
X154924694Y-111214171D01*
X157002074Y-109136791D01*
X157002075Y-109136790D01*
X157051773Y-109050710D01*
X157051774Y-109050709D01*
X157077499Y-108954702D01*
X157077500Y-108954702D01*
X157077500Y-97425302D01*
X157077500Y-97425301D01*
X157070788Y-97400253D01*
X157051774Y-97329290D01*
X157002076Y-97243210D01*
X155491852Y-95732986D01*
X155477500Y-95698338D01*
X155477500Y-92176500D01*
X155491852Y-92141852D01*
X155526500Y-92127500D01*
X156212558Y-92127500D01*
X156249748Y-92120102D01*
X156291922Y-92091922D01*
X156320102Y-92049748D01*
X156327500Y-92012558D01*
X156327500Y-89987442D01*
X156320102Y-89950252D01*
X156301559Y-89922500D01*
X156291922Y-89908077D01*
X156260361Y-89886990D01*
X156249748Y-89879898D01*
X156249747Y-89879897D01*
X156249746Y-89879897D01*
X156212561Y-89872500D01*
X156212558Y-89872500D01*
X154187442Y-89872500D01*
X154187438Y-89872500D01*
X154150253Y-89879897D01*
X154108077Y-89908077D01*
X154079897Y-89950253D01*
X154072500Y-89987438D01*
X154072500Y-92012561D01*
X154079897Y-92049746D01*
X154108077Y-92091922D01*
X154120167Y-92100000D01*
X154150252Y-92120102D01*
X154187442Y-92127500D01*
X154673500Y-92127500D01*
X154708148Y-92141852D01*
X154722500Y-92176500D01*
X154722500Y-95924702D01*
X154748225Y-96020708D01*
X154748226Y-96020712D01*
X154797921Y-96106784D01*
X154797923Y-96106786D01*
X154797925Y-96106790D01*
X154797928Y-96106793D01*
X156308148Y-97617013D01*
X156322500Y-97651661D01*
X156322500Y-108728339D01*
X156308148Y-108762987D01*
X154097928Y-110973206D01*
X154097921Y-110973216D01*
X154048226Y-111059286D01*
X154046638Y-111065217D01*
X154041568Y-111084137D01*
X154022500Y-111155299D01*
X154022500Y-111650719D01*
X154015935Y-111675219D01*
X154001634Y-111699989D01*
X154001631Y-111699995D01*
X153972500Y-111808715D01*
X150830148Y-111808715D01*
X151405413Y-111233450D01*
X151427376Y-111220770D01*
X151455009Y-111213367D01*
X151552491Y-111157085D01*
X151632085Y-111077491D01*
X151688367Y-110980009D01*
X151717499Y-110871284D01*
X151717500Y-110871284D01*
X151717500Y-110758716D01*
X151717499Y-110758715D01*
X151688367Y-110649991D01*
X151688366Y-110649988D01*
X151632088Y-110552514D01*
X151632087Y-110552513D01*
X151632085Y-110552509D01*
X151552491Y-110472915D01*
X151552487Y-110472913D01*
X151552485Y-110472911D01*
X151455011Y-110416633D01*
X151455008Y-110416632D01*
X151346284Y-110387500D01*
X151346281Y-110387500D01*
X151233719Y-110387500D01*
X151233716Y-110387500D01*
X151124991Y-110416632D01*
X151124988Y-110416633D01*
X151027514Y-110472911D01*
X151027505Y-110472918D01*
X150947918Y-110552505D01*
X150947911Y-110552514D01*
X150891633Y-110649988D01*
X150891632Y-110649991D01*
X150884228Y-110677623D01*
X150871546Y-110699587D01*
X149287928Y-112283206D01*
X149287921Y-112283215D01*
X149238226Y-112369287D01*
X149238225Y-112369290D01*
X149224653Y-112419946D01*
X149224653Y-112419947D01*
X149212500Y-112465299D01*
X149212500Y-112700719D01*
X149205935Y-112725219D01*
X149191634Y-112749989D01*
X149191631Y-112749995D01*
X149162500Y-112858715D01*
X148717500Y-112858715D01*
X148717500Y-112455322D01*
X148731852Y-112420674D01*
X151155675Y-109996852D01*
X151190323Y-109982500D01*
X151335251Y-109982500D01*
X151335253Y-109982500D01*
X151418868Y-109947865D01*
X151418870Y-109947863D01*
X151418871Y-109947863D01*
X151482863Y-109883871D01*
X151482863Y-109883870D01*
X151482865Y-109883868D01*
X151517500Y-109800253D01*
X151517500Y-87969529D01*
X151531852Y-87934881D01*
X152682864Y-86783869D01*
X152682865Y-86783868D01*
X152692778Y-86759936D01*
X152717500Y-86700253D01*
X152717500Y-86369529D01*
X152731852Y-86334881D01*
X152782865Y-86283868D01*
X152813567Y-86209747D01*
X152817500Y-86200253D01*
X152817500Y-85645576D01*
X152831852Y-85610928D01*
X152841993Y-85603145D01*
X152852491Y-85597085D01*
X152932085Y-85517491D01*
X152988367Y-85420009D01*
X153017499Y-85311284D01*
X153017500Y-85311284D01*
X153017500Y-85198716D01*
X153017499Y-85198715D01*
X152988367Y-85089991D01*
X152988366Y-85089988D01*
X152932088Y-84992514D01*
X152932087Y-84992513D01*
X152932085Y-84992509D01*
X152852491Y-84912915D01*
X152852487Y-84912913D01*
X152852485Y-84912911D01*
X152755011Y-84856633D01*
X152755008Y-84856632D01*
X152646284Y-84827500D01*
X152646281Y-84827500D01*
X152533719Y-84827500D01*
X152533716Y-84827500D01*
X152424991Y-84856632D01*
X152424988Y-84856633D01*
X152327514Y-84912911D01*
X152327505Y-84912918D01*
X152247918Y-84992505D01*
X152247911Y-84992514D01*
X152191633Y-85089988D01*
X152191632Y-85089991D01*
X152162500Y-85198715D01*
X152162500Y-85311284D01*
X152191632Y-85420008D01*
X152191633Y-85420011D01*
X152247911Y-85517485D01*
X152247913Y-85517487D01*
X152247915Y-85517491D01*
X152327509Y-85597085D01*
X152338000Y-85603142D01*
X152360830Y-85632892D01*
X152362500Y-85645576D01*
X152362500Y-86040470D01*
X152348148Y-86075118D01*
X152297136Y-86126130D01*
X152262500Y-86209745D01*
X152262500Y-86540471D01*
X152248148Y-86575119D01*
X151161132Y-87662135D01*
X151097136Y-87726129D01*
X151097136Y-87726130D01*
X151062500Y-87809745D01*
X151062500Y-93104628D01*
X151048148Y-93139276D01*
X151013500Y-93153628D01*
X150978852Y-93139276D01*
X150952494Y-93112918D01*
X150952491Y-93112915D01*
X150952487Y-93112913D01*
X150952485Y-93112911D01*
X150855011Y-93056633D01*
X150855008Y-93056632D01*
X150746284Y-93027500D01*
X150746281Y-93027500D01*
X150633719Y-93027500D01*
X150633716Y-93027500D01*
X150524991Y-93056632D01*
X150524988Y-93056633D01*
X150427514Y-93112911D01*
X150427505Y-93112918D01*
X150401148Y-93139276D01*
X150366500Y-93153628D01*
X150331852Y-93139276D01*
X150317500Y-93104628D01*
X150317500Y-88309749D01*
X150317499Y-88309745D01*
X150312932Y-88298719D01*
X150282865Y-88226132D01*
X150282863Y-88226130D01*
X150282863Y-88226129D01*
X150218868Y-88162135D01*
X149618870Y-87562136D01*
X149535254Y-87527500D01*
X149535253Y-87527500D01*
X149165342Y-87527500D01*
X149130694Y-87513148D01*
X149118012Y-87491182D01*
X149097113Y-87413186D01*
X149097112Y-87413183D01*
X149040834Y-87315709D01*
X149040833Y-87315708D01*
X149040831Y-87315704D01*
X148961237Y-87236110D01*
X148961233Y-87236108D01*
X148961231Y-87236106D01*
X148863757Y-87179828D01*
X148863754Y-87179827D01*
X148755030Y-87150695D01*
X148755027Y-87150695D01*
X148642465Y-87150695D01*
X148642462Y-87150695D01*
X148533737Y-87179827D01*
X148533734Y-87179828D01*
X148436260Y-87236106D01*
X148436251Y-87236113D01*
X148356664Y-87315700D01*
X148356657Y-87315709D01*
X148300379Y-87413183D01*
X148300378Y-87413186D01*
X148271246Y-87521910D01*
X148271246Y-87634479D01*
X148300378Y-87743203D01*
X148300379Y-87743206D01*
X148356657Y-87840680D01*
X148356659Y-87840682D01*
X148356661Y-87840686D01*
X148436255Y-87920280D01*
X148436259Y-87920282D01*
X148436260Y-87920283D01*
X148533733Y-87976560D01*
X148533734Y-87976560D01*
X148533737Y-87976562D01*
X148554386Y-87982094D01*
X148584137Y-88004923D01*
X148589034Y-88042105D01*
X148576352Y-88064072D01*
X148547915Y-88092509D01*
X148547911Y-88092514D01*
X148491633Y-88189988D01*
X148491632Y-88189991D01*
X148462500Y-88298715D01*
X148462500Y-88411283D01*
X148465635Y-88422986D01*
X148460738Y-88460168D01*
X148452952Y-88470313D01*
X147861132Y-89062135D01*
X147797136Y-89126129D01*
X147797136Y-89126130D01*
X147762500Y-89209745D01*
X147762500Y-107340470D01*
X147748148Y-107375118D01*
X146943247Y-108180018D01*
X146908599Y-108194370D01*
X146873951Y-108180018D01*
X146859599Y-108145370D01*
X146863329Y-108126619D01*
X146865500Y-108121379D01*
X146865500Y-108030874D01*
X146865500Y-90292747D01*
X146855355Y-90268257D01*
X146830866Y-90209132D01*
X146830864Y-90209130D01*
X146830863Y-90209128D01*
X146037046Y-89415313D01*
X146022694Y-89380665D01*
X146024365Y-89367979D01*
X146027500Y-89356282D01*
X146027500Y-89243716D01*
X146027499Y-89243715D01*
X145998367Y-89134991D01*
X145998366Y-89134988D01*
X145942088Y-89037514D01*
X145942087Y-89037513D01*
X145942085Y-89037509D01*
X145862491Y-88957915D01*
X145862487Y-88957913D01*
X145862485Y-88957911D01*
X145765011Y-88901633D01*
X145765008Y-88901632D01*
X145656284Y-88872500D01*
X145656281Y-88872500D01*
X145543719Y-88872500D01*
X145543716Y-88872500D01*
X145434991Y-88901632D01*
X145434988Y-88901633D01*
X145337514Y-88957911D01*
X145337505Y-88957918D01*
X145257918Y-89037505D01*
X145257911Y-89037514D01*
X145201633Y-89134988D01*
X145201632Y-89134991D01*
X145172500Y-89243715D01*
X145172500Y-89356284D01*
X145201632Y-89465008D01*
X145201633Y-89465011D01*
X145257911Y-89562485D01*
X145257913Y-89562487D01*
X145257915Y-89562491D01*
X145337509Y-89642085D01*
X145337513Y-89642087D01*
X145337514Y-89642088D01*
X145434988Y-89698366D01*
X145434991Y-89698367D01*
X145543715Y-89727499D01*
X145543716Y-89727500D01*
X145543719Y-89727500D01*
X145656283Y-89727500D01*
X145663076Y-89725679D01*
X145667979Y-89724365D01*
X145705162Y-89729257D01*
X145715313Y-89737046D01*
X146396148Y-90417881D01*
X146410500Y-90452529D01*
X146410500Y-102569988D01*
X146396148Y-102604636D01*
X146361500Y-102618988D01*
X146337000Y-102612423D01*
X146275011Y-102576633D01*
X146275008Y-102576632D01*
X146166284Y-102547500D01*
X146166281Y-102547500D01*
X146053719Y-102547500D01*
X146053716Y-102547500D01*
X145944991Y-102576632D01*
X145944988Y-102576633D01*
X145847514Y-102632911D01*
X145847505Y-102632918D01*
X145767918Y-102712505D01*
X145767911Y-102712514D01*
X145711633Y-102809988D01*
X145711632Y-102809991D01*
X145682500Y-102918715D01*
X145682500Y-103031283D01*
X145685635Y-103042986D01*
X145680738Y-103080168D01*
X145672952Y-103090313D01*
X145488119Y-103275148D01*
X145453471Y-103289500D01*
X136380577Y-103289500D01*
X136345929Y-103275148D01*
X136338144Y-103265003D01*
X136332085Y-103254509D01*
X136252491Y-103174915D01*
X136252487Y-103174913D01*
X136252485Y-103174911D01*
X136155011Y-103118633D01*
X136155008Y-103118632D01*
X136046284Y-103089500D01*
X136046281Y-103089500D01*
X135933719Y-103089500D01*
X135933716Y-103089500D01*
X135824991Y-103118632D01*
X135824988Y-103118633D01*
X135727514Y-103174911D01*
X135727505Y-103174918D01*
X135711148Y-103191276D01*
X135676500Y-103205628D01*
X135641852Y-103191276D01*
X135627500Y-103156628D01*
X135627500Y-100950202D01*
X135627499Y-100950198D01*
X135592865Y-100866585D01*
X135592863Y-100866583D01*
X135592863Y-100866582D01*
X135528868Y-100802588D01*
X133881154Y-99154874D01*
X133866802Y-99120226D01*
X133881154Y-99085578D01*
X134423018Y-98543715D01*
X134772500Y-98543715D01*
X134772500Y-98656284D01*
X134801632Y-98765008D01*
X134801633Y-98765011D01*
X134857911Y-98862485D01*
X134857913Y-98862487D01*
X134857915Y-98862491D01*
X134937509Y-98942085D01*
X134937513Y-98942087D01*
X134937514Y-98942088D01*
X135034988Y-98998366D01*
X135034991Y-98998367D01*
X135143715Y-99027499D01*
X135143716Y-99027500D01*
X135143719Y-99027500D01*
X135256284Y-99027500D01*
X135256284Y-99027499D01*
X135365009Y-98998367D01*
X135462491Y-98942085D01*
X135542085Y-98862491D01*
X135598367Y-98765009D01*
X135627499Y-98656284D01*
X135627500Y-98656284D01*
X135627500Y-98615050D01*
X135641852Y-98580402D01*
X135676500Y-98566050D01*
X136239576Y-98566050D01*
X136274224Y-98580402D01*
X136286906Y-98602368D01*
X136291632Y-98620008D01*
X136291633Y-98620011D01*
X136347911Y-98717485D01*
X136347913Y-98717487D01*
X136347915Y-98717491D01*
X136427509Y-98797085D01*
X136427513Y-98797087D01*
X136427514Y-98797088D01*
X136524988Y-98853366D01*
X136524991Y-98853367D01*
X136633715Y-98882499D01*
X136633716Y-98882500D01*
X136633719Y-98882500D01*
X136746284Y-98882500D01*
X136746284Y-98882499D01*
X136855009Y-98853367D01*
X136952491Y-98797085D01*
X137032085Y-98717491D01*
X137088367Y-98620009D01*
X137117499Y-98511284D01*
X137117500Y-98511284D01*
X137117500Y-98398716D01*
X137117499Y-98398715D01*
X137088367Y-98289991D01*
X137088366Y-98289988D01*
X137032088Y-98192514D01*
X137032087Y-98192513D01*
X137032085Y-98192509D01*
X136952491Y-98112915D01*
X136952487Y-98112913D01*
X136952485Y-98112911D01*
X136855011Y-98056633D01*
X136855008Y-98056632D01*
X136746284Y-98027500D01*
X136746281Y-98027500D01*
X136633719Y-98027500D01*
X136633716Y-98027500D01*
X136524991Y-98056632D01*
X136524989Y-98056633D01*
X136442110Y-98104485D01*
X136417610Y-98111050D01*
X135416195Y-98111050D01*
X135332582Y-98145685D01*
X135315312Y-98162954D01*
X135280663Y-98177304D01*
X135267986Y-98175635D01*
X135256283Y-98172500D01*
X135256281Y-98172500D01*
X135143719Y-98172500D01*
X135143716Y-98172500D01*
X135034991Y-98201632D01*
X135034988Y-98201633D01*
X134937514Y-98257911D01*
X134937505Y-98257918D01*
X134857918Y-98337505D01*
X134857911Y-98337514D01*
X134801633Y-98434988D01*
X134801632Y-98434991D01*
X134772500Y-98543715D01*
X134423018Y-98543715D01*
X134460874Y-98505859D01*
X135369882Y-97596852D01*
X135404530Y-97582500D01*
X136199423Y-97582500D01*
X136234071Y-97596852D01*
X136241855Y-97606996D01*
X136247915Y-97617491D01*
X136327509Y-97697085D01*
X136327513Y-97697087D01*
X136327514Y-97697088D01*
X136424988Y-97753366D01*
X136424991Y-97753367D01*
X136533715Y-97782499D01*
X136533716Y-97782500D01*
X136533719Y-97782500D01*
X136646284Y-97782500D01*
X136646284Y-97782499D01*
X136755009Y-97753367D01*
X136852491Y-97697085D01*
X136932085Y-97617491D01*
X136988367Y-97520009D01*
X137017499Y-97411284D01*
X137017500Y-97411284D01*
X137017500Y-97298716D01*
X137017499Y-97298715D01*
X136988367Y-97189991D01*
X136988366Y-97189988D01*
X136932088Y-97092514D01*
X136932087Y-97092513D01*
X136932085Y-97092509D01*
X136852491Y-97012915D01*
X136852487Y-97012913D01*
X136852485Y-97012911D01*
X136755011Y-96956633D01*
X136755008Y-96956632D01*
X136646284Y-96927500D01*
X136646281Y-96927500D01*
X136533719Y-96927500D01*
X136533716Y-96927500D01*
X136424991Y-96956632D01*
X136424988Y-96956633D01*
X136327514Y-97012911D01*
X136327505Y-97012918D01*
X136247917Y-97092506D01*
X136247915Y-97092508D01*
X136247915Y-97092509D01*
X136241857Y-97103001D01*
X136212104Y-97125831D01*
X136199423Y-97127500D01*
X135335253Y-97127500D01*
X135244747Y-97127500D01*
X135244745Y-97127500D01*
X135244743Y-97127501D01*
X135161131Y-97162134D01*
X135161129Y-97162135D01*
X133610119Y-98713148D01*
X133575471Y-98727500D01*
X133499747Y-98727500D01*
X133499745Y-98727500D01*
X133499743Y-98727501D01*
X133416131Y-98762134D01*
X133416129Y-98762135D01*
X133207137Y-98971128D01*
X133207136Y-98971130D01*
X133172500Y-99054745D01*
X133172500Y-99054747D01*
X133172500Y-99145253D01*
X133207135Y-99228868D01*
X133207136Y-99228869D01*
X133207137Y-99228871D01*
X133271129Y-99292863D01*
X133271130Y-99292863D01*
X133271132Y-99292865D01*
X133354747Y-99327500D01*
X133390018Y-99327500D01*
X133424666Y-99341852D01*
X133679166Y-99596352D01*
X133693518Y-99631000D01*
X133679166Y-99665648D01*
X133644518Y-99680000D01*
X133155000Y-99680000D01*
X133155000Y-99980000D01*
X133055000Y-99980000D01*
X133055000Y-99680000D01*
X132476006Y-99680000D01*
X132323410Y-99720888D01*
X132323407Y-99720889D01*
X132186591Y-99799881D01*
X132186591Y-99799882D01*
X132074882Y-99911591D01*
X132074881Y-99911591D01*
X131995889Y-100048407D01*
X131995888Y-100048410D01*
X131955000Y-100201005D01*
X129824999Y-100201005D01*
X129784111Y-100048410D01*
X129784110Y-100048407D01*
X129705118Y-99911591D01*
X129593408Y-99799881D01*
X129456592Y-99720889D01*
X129456589Y-99720888D01*
X129303994Y-99680000D01*
X128975000Y-99680000D01*
X128975000Y-99980000D01*
X128875000Y-99980000D01*
X128875000Y-99680000D01*
X128546006Y-99680000D01*
X128393410Y-99720888D01*
X128393407Y-99720889D01*
X128256591Y-99799881D01*
X128256591Y-99799882D01*
X128144882Y-99911591D01*
X128144881Y-99911591D01*
X128065889Y-100048407D01*
X128065888Y-100048410D01*
X128025000Y-100201005D01*
X126800500Y-100201005D01*
X126800500Y-95883725D01*
X128202500Y-95883725D01*
X128202500Y-96076275D01*
X128240064Y-96265126D01*
X128313750Y-96443020D01*
X128356887Y-96507580D01*
X128420723Y-96603117D01*
X128556882Y-96739276D01*
X128620573Y-96781832D01*
X128716980Y-96846250D01*
X128894874Y-96919936D01*
X129083725Y-96957500D01*
X129083728Y-96957500D01*
X129276272Y-96957500D01*
X129276275Y-96957500D01*
X129465126Y-96919936D01*
X129643020Y-96846250D01*
X129803120Y-96739274D01*
X129939274Y-96603120D01*
X130046250Y-96443020D01*
X130119936Y-96265126D01*
X130157500Y-96076275D01*
X130157500Y-95883725D01*
X130119936Y-95694874D01*
X130046250Y-95516980D01*
X129981832Y-95420573D01*
X129939276Y-95356882D01*
X129803117Y-95220723D01*
X129707580Y-95156887D01*
X129643020Y-95113750D01*
X129643017Y-95113748D01*
X129643016Y-95113748D01*
X129465126Y-95040064D01*
X129276275Y-95002500D01*
X129083725Y-95002500D01*
X128942086Y-95030673D01*
X128894873Y-95040064D01*
X128894872Y-95040064D01*
X128716983Y-95113748D01*
X128556882Y-95220723D01*
X128420723Y-95356882D01*
X128313748Y-95516983D01*
X128240064Y-95694872D01*
X128240064Y-95694873D01*
X128240064Y-95694874D01*
X128202500Y-95883725D01*
X126800500Y-95883725D01*
X126800500Y-93346427D01*
X128230000Y-93346427D01*
X128230000Y-93390000D01*
X128680000Y-93390000D01*
X128680000Y-93490000D01*
X128230000Y-93490000D01*
X128230000Y-93533572D01*
X128266505Y-93717093D01*
X128266510Y-93717112D01*
X128338119Y-93889990D01*
X128442086Y-94045589D01*
X128574410Y-94177913D01*
X128730009Y-94281880D01*
X128902887Y-94353489D01*
X128902906Y-94353494D01*
X129086427Y-94389999D01*
X129086434Y-94390000D01*
X129130000Y-94390000D01*
X129130000Y-93940000D01*
X129230000Y-93940000D01*
X129230000Y-94390000D01*
X129273566Y-94390000D01*
X129273572Y-94389999D01*
X129457093Y-94353494D01*
X129457112Y-94353489D01*
X129629990Y-94281880D01*
X129785589Y-94177913D01*
X129917913Y-94045589D01*
X130021880Y-93889990D01*
X130093489Y-93717112D01*
X130093494Y-93717093D01*
X130129999Y-93533572D01*
X130130000Y-93533565D01*
X130130000Y-93490000D01*
X129680000Y-93490000D01*
X129680000Y-93390000D01*
X130130000Y-93390000D01*
X130130000Y-93346434D01*
X130129999Y-93346427D01*
X130093494Y-93162906D01*
X130093489Y-93162887D01*
X130021880Y-92990009D01*
X129917913Y-92834410D01*
X129785589Y-92702086D01*
X129629990Y-92598119D01*
X129457112Y-92526510D01*
X129457093Y-92526505D01*
X129273572Y-92490000D01*
X129230000Y-92490000D01*
X129230000Y-92940000D01*
X129130000Y-92940000D01*
X129130000Y-92490000D01*
X129086427Y-92490000D01*
X128902906Y-92526505D01*
X128902887Y-92526510D01*
X128730009Y-92598119D01*
X128574410Y-92702086D01*
X128442086Y-92834410D01*
X128338119Y-92990009D01*
X128266510Y-93162887D01*
X128266505Y-93162906D01*
X128230000Y-93346427D01*
X126800500Y-93346427D01*
X126800500Y-90803725D01*
X128202500Y-90803725D01*
X128202500Y-90996275D01*
X128220461Y-91086571D01*
X128240064Y-91185126D01*
X128240064Y-91185127D01*
X128270077Y-91257584D01*
X128313750Y-91363020D01*
X128353327Y-91422251D01*
X128420723Y-91523117D01*
X128556882Y-91659276D01*
X128620573Y-91701832D01*
X128716980Y-91766250D01*
X128894874Y-91839936D01*
X129083725Y-91877500D01*
X129083728Y-91877500D01*
X129276272Y-91877500D01*
X129276275Y-91877500D01*
X129465126Y-91839936D01*
X129643020Y-91766250D01*
X129803120Y-91659274D01*
X129939274Y-91523120D01*
X130046250Y-91363020D01*
X130119936Y-91185126D01*
X130157500Y-90996275D01*
X130157500Y-90913428D01*
X133300000Y-90913428D01*
X133300000Y-91086571D01*
X133327085Y-91257581D01*
X133327086Y-91257584D01*
X133380589Y-91422251D01*
X133459197Y-91576527D01*
X133459199Y-91576530D01*
X133560967Y-91716602D01*
X133586827Y-91742461D01*
X133834314Y-91494974D01*
X133905024Y-91565684D01*
X133657537Y-91813171D01*
X133683397Y-91839032D01*
X133823469Y-91940800D01*
X133823472Y-91940802D01*
X133977748Y-92019410D01*
X134142415Y-92072913D01*
X134142418Y-92072914D01*
X134313429Y-92100000D01*
X134486571Y-92100000D01*
X134657581Y-92072914D01*
X134657584Y-92072913D01*
X134822251Y-92019410D01*
X134976527Y-91940802D01*
X134976530Y-91940800D01*
X135116598Y-91839035D01*
X135142462Y-91813171D01*
X134894975Y-91565684D01*
X134965684Y-91494975D01*
X135213171Y-91742462D01*
X135239035Y-91716598D01*
X135340800Y-91576530D01*
X135340802Y-91576527D01*
X135419410Y-91422251D01*
X135472913Y-91257584D01*
X135472914Y-91257581D01*
X135500000Y-91086571D01*
X135500000Y-90913428D01*
X135472914Y-90742418D01*
X135472913Y-90742415D01*
X135419410Y-90577748D01*
X135340802Y-90423472D01*
X135340800Y-90423469D01*
X135239032Y-90283397D01*
X135213171Y-90257537D01*
X134965684Y-90505024D01*
X134894974Y-90434314D01*
X135142462Y-90186827D01*
X135116602Y-90160967D01*
X134976530Y-90059199D01*
X134976527Y-90059197D01*
X134822251Y-89980589D01*
X134657584Y-89927086D01*
X134657581Y-89927085D01*
X134486571Y-89900000D01*
X134313429Y-89900000D01*
X134142418Y-89927085D01*
X134142415Y-89927086D01*
X133977748Y-89980589D01*
X133823472Y-90059197D01*
X133823469Y-90059199D01*
X133683399Y-90160965D01*
X133683395Y-90160969D01*
X133657537Y-90186826D01*
X133905025Y-90434314D01*
X133834315Y-90505025D01*
X133586827Y-90257537D01*
X133560965Y-90283399D01*
X133459199Y-90423469D01*
X133459197Y-90423472D01*
X133380589Y-90577748D01*
X133327086Y-90742415D01*
X133327085Y-90742418D01*
X133300000Y-90913428D01*
X130157500Y-90913428D01*
X130157500Y-90803725D01*
X130119936Y-90614874D01*
X130046250Y-90436980D01*
X129978349Y-90335359D01*
X129939276Y-90276882D01*
X129803117Y-90140723D01*
X129707580Y-90076887D01*
X129643020Y-90033750D01*
X129643017Y-90033748D01*
X129643016Y-90033748D01*
X129465126Y-89960064D01*
X129276275Y-89922500D01*
X129083725Y-89922500D01*
X128944203Y-89950252D01*
X128894873Y-89960064D01*
X128894872Y-89960064D01*
X128716983Y-90033748D01*
X128556882Y-90140723D01*
X128420723Y-90276882D01*
X128313748Y-90436983D01*
X128240064Y-90614872D01*
X128240064Y-90614873D01*
X128240064Y-90614874D01*
X128202500Y-90803725D01*
X126800500Y-90803725D01*
X126800500Y-88263725D01*
X128202500Y-88263725D01*
X128202500Y-88456275D01*
X128215178Y-88520011D01*
X128240064Y-88645126D01*
X128240064Y-88645127D01*
X128296966Y-88782500D01*
X128313750Y-88823020D01*
X128346812Y-88872500D01*
X128420723Y-88983117D01*
X128556882Y-89119276D01*
X128620573Y-89161832D01*
X128716980Y-89226250D01*
X128894874Y-89299936D01*
X129083725Y-89337500D01*
X129083728Y-89337500D01*
X129276272Y-89337500D01*
X129276275Y-89337500D01*
X129465126Y-89299936D01*
X129643020Y-89226250D01*
X129803120Y-89119274D01*
X129939274Y-88983120D01*
X130046250Y-88823020D01*
X130119936Y-88645126D01*
X130157500Y-88456275D01*
X130157500Y-88263725D01*
X130119936Y-88074874D01*
X130046250Y-87896980D01*
X129981832Y-87800573D01*
X129939276Y-87736882D01*
X129803117Y-87600723D01*
X129685164Y-87521910D01*
X129643020Y-87493750D01*
X129643017Y-87493748D01*
X129643016Y-87493748D01*
X129465126Y-87420064D01*
X129430532Y-87413183D01*
X129276275Y-87382500D01*
X129083725Y-87382500D01*
X128942086Y-87410673D01*
X128894873Y-87420064D01*
X128894872Y-87420064D01*
X128716983Y-87493748D01*
X128556882Y-87600723D01*
X128420723Y-87736882D01*
X128313748Y-87896983D01*
X128240064Y-88074872D01*
X128240064Y-88074873D01*
X128240064Y-88074874D01*
X128202500Y-88263725D01*
X126800500Y-88263725D01*
X126800500Y-85723725D01*
X128202500Y-85723725D01*
X128202500Y-85916275D01*
X128231241Y-86060767D01*
X128240064Y-86105126D01*
X128240064Y-86105127D01*
X128283399Y-86209747D01*
X128313750Y-86283020D01*
X128314317Y-86283868D01*
X128420723Y-86443117D01*
X128556882Y-86579276D01*
X128620573Y-86621832D01*
X128716980Y-86686250D01*
X128894874Y-86759936D01*
X129083725Y-86797500D01*
X129083728Y-86797500D01*
X129276272Y-86797500D01*
X129276275Y-86797500D01*
X129465126Y-86759936D01*
X129643020Y-86686250D01*
X129803120Y-86579274D01*
X129939274Y-86443120D01*
X130046250Y-86283020D01*
X130119936Y-86105126D01*
X130157500Y-85916275D01*
X130157500Y-85723725D01*
X130119936Y-85534874D01*
X130046250Y-85356980D01*
X129940501Y-85198716D01*
X129939276Y-85196882D01*
X129803117Y-85060723D01*
X129701021Y-84992505D01*
X129643020Y-84953750D01*
X129643017Y-84953748D01*
X129643016Y-84953748D01*
X129465126Y-84880064D01*
X129276275Y-84842500D01*
X129083725Y-84842500D01*
X128942086Y-84870673D01*
X128894873Y-84880064D01*
X128894872Y-84880064D01*
X128716983Y-84953748D01*
X128556882Y-85060723D01*
X128420723Y-85196882D01*
X128313748Y-85356983D01*
X128240064Y-85534872D01*
X128240064Y-85534873D01*
X128240064Y-85534874D01*
X128202500Y-85723725D01*
X126800500Y-85723725D01*
X126800500Y-83183725D01*
X128202500Y-83183725D01*
X128202500Y-83376275D01*
X128238375Y-83556633D01*
X128240064Y-83565126D01*
X128240064Y-83565127D01*
X128313748Y-83743016D01*
X128313750Y-83743020D01*
X128345133Y-83789988D01*
X128420723Y-83903117D01*
X128556882Y-84039276D01*
X128620573Y-84081832D01*
X128716980Y-84146250D01*
X128894874Y-84219936D01*
X129083725Y-84257500D01*
X129083728Y-84257500D01*
X129276272Y-84257500D01*
X129276275Y-84257500D01*
X129465126Y-84219936D01*
X129643020Y-84146250D01*
X129803120Y-84039274D01*
X129939274Y-83903120D01*
X130046250Y-83743020D01*
X130119936Y-83565126D01*
X130157500Y-83376275D01*
X130157500Y-83183725D01*
X130119936Y-82994874D01*
X130046250Y-82816980D01*
X129981832Y-82720573D01*
X129939276Y-82656882D01*
X129803117Y-82520723D01*
X129707580Y-82456887D01*
X129643020Y-82413750D01*
X129643017Y-82413748D01*
X129643016Y-82413748D01*
X129465126Y-82340064D01*
X129276275Y-82302500D01*
X129083725Y-82302500D01*
X128942086Y-82330673D01*
X128894873Y-82340064D01*
X128894872Y-82340064D01*
X128716983Y-82413748D01*
X128556882Y-82520723D01*
X128420723Y-82656882D01*
X128313748Y-82816983D01*
X128240064Y-82994872D01*
X128240064Y-82994873D01*
X128240064Y-82994874D01*
X128202500Y-83183725D01*
X126800500Y-83183725D01*
X126800500Y-80646427D01*
X128230000Y-80646427D01*
X128230000Y-80690000D01*
X128680000Y-80690000D01*
X128680000Y-80790000D01*
X128230000Y-80790000D01*
X128230000Y-80833572D01*
X128266505Y-81017093D01*
X128266510Y-81017112D01*
X128338119Y-81189990D01*
X128442086Y-81345589D01*
X128574410Y-81477913D01*
X128730009Y-81581880D01*
X128902887Y-81653489D01*
X128902906Y-81653494D01*
X129086427Y-81689999D01*
X129086434Y-81690000D01*
X129130000Y-81690000D01*
X129130000Y-81240000D01*
X129230000Y-81240000D01*
X129230000Y-81690000D01*
X129273566Y-81690000D01*
X129273572Y-81689999D01*
X129457093Y-81653494D01*
X129457112Y-81653489D01*
X129629990Y-81581880D01*
X129785589Y-81477913D01*
X129917913Y-81345589D01*
X130021880Y-81189990D01*
X130093489Y-81017112D01*
X130093494Y-81017093D01*
X130129999Y-80833572D01*
X130130000Y-80833565D01*
X130130000Y-80790000D01*
X129680000Y-80790000D01*
X129680000Y-80690000D01*
X130130000Y-80690000D01*
X130130000Y-80646434D01*
X130129999Y-80646427D01*
X130093494Y-80462906D01*
X130093489Y-80462887D01*
X130021880Y-80290009D01*
X129917913Y-80134410D01*
X129785589Y-80002086D01*
X129629990Y-79898119D01*
X129457112Y-79826510D01*
X129457093Y-79826505D01*
X129273572Y-79790000D01*
X129230000Y-79790000D01*
X129230000Y-80240000D01*
X129130000Y-80240000D01*
X129130000Y-79790000D01*
X129086427Y-79790000D01*
X128902906Y-79826505D01*
X128902887Y-79826510D01*
X128730009Y-79898119D01*
X128574410Y-80002086D01*
X128442086Y-80134410D01*
X128338119Y-80290009D01*
X128266510Y-80462887D01*
X128266505Y-80462906D01*
X128230000Y-80646427D01*
X126800500Y-80646427D01*
X126800500Y-77337438D01*
X128202500Y-77337438D01*
X128202500Y-79062561D01*
X128209897Y-79099746D01*
X128238077Y-79141922D01*
X128255151Y-79153330D01*
X128280252Y-79170102D01*
X128317442Y-79177500D01*
X130042558Y-79177500D01*
X130079748Y-79170102D01*
X130121922Y-79141922D01*
X130150102Y-79099748D01*
X130157500Y-79062558D01*
X130157500Y-78698678D01*
X134162537Y-78698678D01*
X134162537Y-78811247D01*
X134191669Y-78919971D01*
X134191670Y-78919974D01*
X134247948Y-79017448D01*
X134247950Y-79017450D01*
X134247952Y-79017454D01*
X134327546Y-79097048D01*
X134327550Y-79097050D01*
X134327551Y-79097051D01*
X134425025Y-79153329D01*
X134425028Y-79153330D01*
X134533752Y-79182462D01*
X134533753Y-79182463D01*
X134533756Y-79182463D01*
X134646321Y-79182463D01*
X134646321Y-79182462D01*
X134755046Y-79153330D01*
X134852528Y-79097048D01*
X134932122Y-79017454D01*
X134988404Y-78919972D01*
X135017536Y-78811247D01*
X135017537Y-78811247D01*
X135017537Y-78698681D01*
X135014401Y-78686980D01*
X135019295Y-78649798D01*
X135027076Y-78639655D01*
X135053058Y-78613674D01*
X135087706Y-78599325D01*
X135122354Y-78613678D01*
X135136704Y-78648325D01*
X135136704Y-79138549D01*
X135122352Y-79173197D01*
X135112206Y-79180983D01*
X135101718Y-79187038D01*
X135101709Y-79187045D01*
X135022122Y-79266632D01*
X135022115Y-79266641D01*
X134965837Y-79364115D01*
X134965836Y-79364118D01*
X134936704Y-79472842D01*
X134936704Y-79585411D01*
X134965836Y-79694135D01*
X134965837Y-79694138D01*
X135022115Y-79791612D01*
X135022117Y-79791614D01*
X135022119Y-79791618D01*
X135101713Y-79871212D01*
X135101717Y-79871214D01*
X135101718Y-79871215D01*
X135199192Y-79927493D01*
X135199195Y-79927494D01*
X135307919Y-79956626D01*
X135307920Y-79956627D01*
X135307923Y-79956627D01*
X135420487Y-79956627D01*
X135453757Y-79947711D01*
X135464251Y-79944900D01*
X135501434Y-79949795D01*
X135524264Y-79979547D01*
X135524264Y-80004912D01*
X135512537Y-80048678D01*
X135512537Y-80161247D01*
X135541669Y-80269971D01*
X135541670Y-80269974D01*
X135597948Y-80367448D01*
X135597950Y-80367450D01*
X135597952Y-80367454D01*
X135677546Y-80447048D01*
X135677550Y-80447050D01*
X135677551Y-80447051D01*
X135775025Y-80503329D01*
X135775028Y-80503330D01*
X135883752Y-80532462D01*
X135883753Y-80532463D01*
X135883756Y-80532463D01*
X135996321Y-80532463D01*
X135996321Y-80532462D01*
X136105046Y-80503330D01*
X136202528Y-80447048D01*
X136282122Y-80367454D01*
X136324333Y-80294342D01*
X136338403Y-80269974D01*
X136338404Y-80269971D01*
X136341197Y-80259550D01*
X136367536Y-80161247D01*
X136367537Y-80161247D01*
X136367537Y-80048681D01*
X136364401Y-80036980D01*
X136369295Y-79999798D01*
X136377079Y-79989652D01*
X137508038Y-78858694D01*
X137542685Y-78844343D01*
X137577333Y-78858695D01*
X137591685Y-78893343D01*
X137590015Y-78906025D01*
X137562500Y-79008715D01*
X137562500Y-79121284D01*
X137591632Y-79230008D01*
X137591633Y-79230011D01*
X137647911Y-79327485D01*
X137647913Y-79327487D01*
X137647915Y-79327491D01*
X137727509Y-79407085D01*
X137738000Y-79413142D01*
X137760830Y-79442892D01*
X137762500Y-79455576D01*
X137762500Y-88940470D01*
X137748148Y-88975118D01*
X135961132Y-90762135D01*
X135897136Y-90826129D01*
X135897136Y-90826130D01*
X135862500Y-90909745D01*
X135862500Y-93664422D01*
X135848148Y-93699070D01*
X135838002Y-93706856D01*
X135827514Y-93712911D01*
X135827505Y-93712918D01*
X135747918Y-93792505D01*
X135747911Y-93792514D01*
X135691633Y-93889988D01*
X135691632Y-93889991D01*
X135662500Y-93998715D01*
X135662500Y-94111284D01*
X135691632Y-94220008D01*
X135691633Y-94220011D01*
X135747911Y-94317485D01*
X135747913Y-94317487D01*
X135747915Y-94317491D01*
X135827509Y-94397085D01*
X135827513Y-94397087D01*
X135827514Y-94397088D01*
X135924988Y-94453366D01*
X135924991Y-94453367D01*
X136033715Y-94482499D01*
X136033716Y-94482500D01*
X136033719Y-94482500D01*
X136146284Y-94482500D01*
X136146284Y-94482499D01*
X136255009Y-94453367D01*
X136352491Y-94397085D01*
X136432085Y-94317491D01*
X136488367Y-94220009D01*
X136517499Y-94111284D01*
X136517500Y-94111284D01*
X136517500Y-93998716D01*
X136517499Y-93998715D01*
X136488367Y-93889991D01*
X136488366Y-93889988D01*
X136432088Y-93792514D01*
X136432087Y-93792513D01*
X136432085Y-93792509D01*
X136352491Y-93712915D01*
X136352487Y-93712913D01*
X136352485Y-93712911D01*
X136341998Y-93706856D01*
X136319169Y-93677102D01*
X136317500Y-93664422D01*
X136317500Y-91069529D01*
X136331852Y-91034881D01*
X138182864Y-89183870D01*
X138182864Y-89183869D01*
X138182866Y-89183868D01*
X138217500Y-89100253D01*
X138217500Y-89009747D01*
X138217500Y-83898715D01*
X138862500Y-83898715D01*
X138862500Y-84011284D01*
X138891632Y-84120008D01*
X138891633Y-84120011D01*
X138947911Y-84217485D01*
X138947913Y-84217487D01*
X138947915Y-84217491D01*
X139027509Y-84297085D01*
X139027513Y-84297087D01*
X139027514Y-84297088D01*
X139124988Y-84353366D01*
X139124991Y-84353367D01*
X139233715Y-84382499D01*
X139233716Y-84382500D01*
X139233719Y-84382500D01*
X139346284Y-84382500D01*
X139346284Y-84382499D01*
X139455009Y-84353367D01*
X139552491Y-84297085D01*
X139632085Y-84217491D01*
X139688367Y-84120009D01*
X139717499Y-84011284D01*
X139717500Y-84011284D01*
X139717500Y-83898718D01*
X139714364Y-83887017D01*
X139719258Y-83849835D01*
X139727042Y-83839689D01*
X142869881Y-80696852D01*
X142904529Y-80682500D01*
X144299423Y-80682500D01*
X144334071Y-80696852D01*
X144341855Y-80706996D01*
X144347915Y-80717491D01*
X144427509Y-80797085D01*
X144427513Y-80797087D01*
X144427514Y-80797088D01*
X144524988Y-80853366D01*
X144524991Y-80853367D01*
X144633715Y-80882499D01*
X144633716Y-80882500D01*
X144633719Y-80882500D01*
X144746284Y-80882500D01*
X144746284Y-80882499D01*
X144855009Y-80853367D01*
X144952491Y-80797085D01*
X145032085Y-80717491D01*
X145088367Y-80620009D01*
X145117499Y-80511284D01*
X145117500Y-80511284D01*
X145117500Y-80398716D01*
X145117499Y-80398715D01*
X145088367Y-80289991D01*
X145088366Y-80289988D01*
X145032088Y-80192514D01*
X145032087Y-80192513D01*
X145032085Y-80192509D01*
X144952491Y-80112915D01*
X144952487Y-80112913D01*
X144952485Y-80112911D01*
X144855011Y-80056633D01*
X144855008Y-80056632D01*
X144746284Y-80027500D01*
X144746281Y-80027500D01*
X144633719Y-80027500D01*
X144633716Y-80027500D01*
X144524991Y-80056632D01*
X144524988Y-80056633D01*
X144427514Y-80112911D01*
X144427505Y-80112918D01*
X144347917Y-80192506D01*
X144347915Y-80192508D01*
X144347915Y-80192509D01*
X144341857Y-80203001D01*
X144312104Y-80225831D01*
X144299423Y-80227500D01*
X142744745Y-80227500D01*
X142667373Y-80259550D01*
X142667370Y-80259551D01*
X142661134Y-80262133D01*
X142661128Y-80262137D01*
X139405313Y-83517952D01*
X139370665Y-83532304D01*
X139357986Y-83530635D01*
X139346283Y-83527500D01*
X139346281Y-83527500D01*
X139233719Y-83527500D01*
X139233716Y-83527500D01*
X139124991Y-83556632D01*
X139124988Y-83556633D01*
X139027514Y-83612911D01*
X139027505Y-83612918D01*
X138947918Y-83692505D01*
X138947911Y-83692514D01*
X138891633Y-83789988D01*
X138891632Y-83789991D01*
X138862500Y-83898715D01*
X138217500Y-83898715D01*
X138217500Y-79455576D01*
X138231852Y-79420928D01*
X138241993Y-79413145D01*
X138252491Y-79407085D01*
X138332085Y-79327491D01*
X138388367Y-79230009D01*
X138417499Y-79121284D01*
X138417500Y-79121284D01*
X138417500Y-79008716D01*
X138417499Y-79008715D01*
X138388367Y-78899991D01*
X138388366Y-78899988D01*
X138332088Y-78802514D01*
X138332087Y-78802513D01*
X138332085Y-78802509D01*
X138252491Y-78722915D01*
X138252487Y-78722913D01*
X138252485Y-78722911D01*
X138155011Y-78666633D01*
X138155008Y-78666632D01*
X138046284Y-78637500D01*
X138046281Y-78637500D01*
X137933719Y-78637500D01*
X137933716Y-78637500D01*
X137831025Y-78665015D01*
X137793843Y-78660120D01*
X137771013Y-78630367D01*
X137775908Y-78593185D01*
X137783690Y-78583042D01*
X138469882Y-77896852D01*
X138504530Y-77882500D01*
X141399423Y-77882500D01*
X141434071Y-77896852D01*
X141441855Y-77906996D01*
X141447915Y-77917491D01*
X141527509Y-77997085D01*
X141527513Y-77997087D01*
X141527514Y-77997088D01*
X141624988Y-78053366D01*
X141624991Y-78053367D01*
X141733715Y-78082499D01*
X141733716Y-78082500D01*
X141733719Y-78082500D01*
X141846284Y-78082500D01*
X141846284Y-78082499D01*
X141955009Y-78053367D01*
X142052491Y-77997085D01*
X142132085Y-77917491D01*
X142188367Y-77820009D01*
X142217499Y-77711284D01*
X142217500Y-77711284D01*
X142217500Y-77598716D01*
X142217499Y-77598715D01*
X142188367Y-77489991D01*
X142188366Y-77489988D01*
X142132088Y-77392514D01*
X142132087Y-77392513D01*
X142132085Y-77392509D01*
X142052491Y-77312915D01*
X142052487Y-77312913D01*
X142052485Y-77312911D01*
X141955011Y-77256633D01*
X141955008Y-77256632D01*
X141846284Y-77227500D01*
X141846281Y-77227500D01*
X141733719Y-77227500D01*
X141733716Y-77227500D01*
X141624991Y-77256632D01*
X141624988Y-77256633D01*
X141527514Y-77312911D01*
X141527505Y-77312918D01*
X141447917Y-77392506D01*
X141447915Y-77392508D01*
X141447915Y-77392509D01*
X141441857Y-77403001D01*
X141412104Y-77425831D01*
X141399423Y-77427500D01*
X138435253Y-77427500D01*
X138344747Y-77427500D01*
X138344745Y-77427500D01*
X138344743Y-77427501D01*
X138261131Y-77462134D01*
X136055350Y-79667915D01*
X136020702Y-79682267D01*
X136008023Y-79680598D01*
X135996320Y-79677463D01*
X135996318Y-79677463D01*
X135883756Y-79677463D01*
X135883755Y-79677463D01*
X135839987Y-79689190D01*
X135802805Y-79684294D01*
X135779975Y-79654540D01*
X135779975Y-79629178D01*
X135791704Y-79585408D01*
X135791704Y-79472846D01*
X135791704Y-79472843D01*
X135791703Y-79472842D01*
X135762571Y-79364118D01*
X135762570Y-79364115D01*
X135706292Y-79266641D01*
X135706291Y-79266640D01*
X135706289Y-79266636D01*
X135626695Y-79187042D01*
X135626691Y-79187040D01*
X135626689Y-79187038D01*
X135616202Y-79180983D01*
X135593373Y-79151229D01*
X135591704Y-79138549D01*
X135591704Y-77995325D01*
X135606056Y-77960677D01*
X137469881Y-76096852D01*
X137504529Y-76082500D01*
X145304804Y-76082500D01*
X145339452Y-76096852D01*
X145353804Y-76131500D01*
X145347239Y-76156000D01*
X145301633Y-76234989D01*
X145301632Y-76234991D01*
X145272500Y-76343715D01*
X145272500Y-76456284D01*
X145301632Y-76565008D01*
X145301633Y-76565011D01*
X145357911Y-76662485D01*
X145357913Y-76662487D01*
X145357915Y-76662491D01*
X145437509Y-76742085D01*
X145437513Y-76742087D01*
X145437514Y-76742088D01*
X145534988Y-76798366D01*
X145534991Y-76798367D01*
X145643715Y-76827499D01*
X145643716Y-76827500D01*
X145643719Y-76827500D01*
X145756284Y-76827500D01*
X145756284Y-76827499D01*
X145865009Y-76798367D01*
X145962491Y-76742085D01*
X146042085Y-76662491D01*
X146048142Y-76651998D01*
X146077896Y-76629169D01*
X146090577Y-76627500D01*
X149485471Y-76627500D01*
X149520119Y-76641852D01*
X151862952Y-78984686D01*
X151877304Y-79019334D01*
X151875635Y-79032012D01*
X151872500Y-79043714D01*
X151872500Y-79156284D01*
X151901632Y-79265008D01*
X151901633Y-79265011D01*
X151957911Y-79362485D01*
X151957913Y-79362487D01*
X151957915Y-79362491D01*
X152037509Y-79442085D01*
X152037513Y-79442087D01*
X152037514Y-79442088D01*
X152134988Y-79498366D01*
X152134991Y-79498367D01*
X152243715Y-79527499D01*
X152243716Y-79527500D01*
X152243719Y-79527500D01*
X152356284Y-79527500D01*
X152356284Y-79527499D01*
X152465009Y-79498367D01*
X152562491Y-79442085D01*
X152642085Y-79362491D01*
X152698367Y-79265009D01*
X152727499Y-79156284D01*
X152727500Y-79156284D01*
X152727500Y-79043716D01*
X152727499Y-79043715D01*
X152698367Y-78934991D01*
X152698366Y-78934988D01*
X152642088Y-78837514D01*
X152642087Y-78837513D01*
X152642085Y-78837509D01*
X152562491Y-78757915D01*
X152562487Y-78757913D01*
X152562485Y-78757911D01*
X152465011Y-78701633D01*
X152465008Y-78701632D01*
X152356284Y-78672500D01*
X152356281Y-78672500D01*
X152243719Y-78672500D01*
X152243714Y-78672500D01*
X152232012Y-78675635D01*
X152194831Y-78670737D01*
X152184686Y-78662952D01*
X150881309Y-77359575D01*
X153099500Y-77359575D01*
X153099500Y-77382351D01*
X153099500Y-77640425D01*
X153107483Y-77711281D01*
X153130944Y-77919500D01*
X153130944Y-77919504D01*
X153193439Y-78193315D01*
X153286200Y-78458412D01*
X153286203Y-78458418D01*
X153408053Y-78711442D01*
X153408055Y-78711446D01*
X153557474Y-78949244D01*
X153732577Y-79168817D01*
X153732588Y-79168829D01*
X153931170Y-79367411D01*
X153931182Y-79367422D01*
X154150755Y-79542525D01*
X154388553Y-79691944D01*
X154388557Y-79691946D01*
X154641581Y-79813796D01*
X154641587Y-79813799D01*
X154641590Y-79813800D01*
X154641592Y-79813801D01*
X154906682Y-79906560D01*
X155180491Y-79969055D01*
X155419705Y-79996007D01*
X155459574Y-80000500D01*
X155459575Y-80000500D01*
X155740426Y-80000500D01*
X155768333Y-79997355D01*
X156019509Y-79969055D01*
X156293318Y-79906560D01*
X156558408Y-79813801D01*
X156811445Y-79691945D01*
X157049248Y-79542523D01*
X157268825Y-79367416D01*
X157467416Y-79168825D01*
X157642523Y-78949248D01*
X157791945Y-78711445D01*
X157913801Y-78458408D01*
X158006560Y-78193318D01*
X158069055Y-77919509D01*
X158100500Y-77640425D01*
X158100500Y-77359575D01*
X158069055Y-77080491D01*
X158006560Y-76806682D01*
X157913801Y-76541592D01*
X157872717Y-76456281D01*
X157791946Y-76288557D01*
X157791944Y-76288553D01*
X157642525Y-76050755D01*
X157640220Y-76047865D01*
X157467416Y-75831175D01*
X157268825Y-75632584D01*
X157268822Y-75632581D01*
X157268817Y-75632577D01*
X157058693Y-75465009D01*
X157049248Y-75457477D01*
X157049246Y-75457476D01*
X157049244Y-75457474D01*
X156811446Y-75308055D01*
X156811442Y-75308053D01*
X156558418Y-75186203D01*
X156558412Y-75186200D01*
X156322658Y-75103706D01*
X156293318Y-75093440D01*
X156293317Y-75093439D01*
X156293316Y-75093439D01*
X156162909Y-75063675D01*
X156019509Y-75030945D01*
X156019503Y-75030944D01*
X156019502Y-75030944D01*
X155740426Y-74999500D01*
X155740425Y-74999500D01*
X155459575Y-74999500D01*
X155459574Y-74999500D01*
X155180499Y-75030944D01*
X155180495Y-75030944D01*
X154906684Y-75093439D01*
X154641587Y-75186200D01*
X154641581Y-75186203D01*
X154388557Y-75308053D01*
X154388553Y-75308055D01*
X154150755Y-75457474D01*
X153931182Y-75632577D01*
X153931170Y-75632588D01*
X153732588Y-75831170D01*
X153732577Y-75831182D01*
X153557474Y-76050755D01*
X153408055Y-76288553D01*
X153408053Y-76288557D01*
X153286203Y-76541581D01*
X153286200Y-76541587D01*
X153193439Y-76806684D01*
X153130944Y-77080495D01*
X153130944Y-77080499D01*
X153114945Y-77222500D01*
X153099500Y-77359575D01*
X150881309Y-77359575D01*
X149728871Y-76207137D01*
X149728869Y-76207136D01*
X149728868Y-76207135D01*
X149679889Y-76186846D01*
X149645254Y-76172500D01*
X149645253Y-76172500D01*
X146619313Y-76172500D01*
X146584665Y-76158148D01*
X146570313Y-76123500D01*
X146584665Y-76088852D01*
X146600560Y-76078230D01*
X146673868Y-76047865D01*
X146984686Y-75737045D01*
X147019333Y-75722694D01*
X147032014Y-75724363D01*
X147043719Y-75727500D01*
X147156284Y-75727500D01*
X147156284Y-75727499D01*
X147265009Y-75698367D01*
X147362491Y-75642085D01*
X147442085Y-75562491D01*
X147498367Y-75465009D01*
X147527499Y-75356284D01*
X147527500Y-75356284D01*
X147527500Y-75243716D01*
X147527499Y-75243715D01*
X147498367Y-75134991D01*
X147498366Y-75134988D01*
X147442088Y-75037514D01*
X147442087Y-75037513D01*
X147442085Y-75037509D01*
X147362491Y-74957915D01*
X147362487Y-74957913D01*
X147362485Y-74957911D01*
X147265011Y-74901633D01*
X147265008Y-74901632D01*
X147156284Y-74872500D01*
X147156281Y-74872500D01*
X147043719Y-74872500D01*
X147043716Y-74872500D01*
X146934991Y-74901632D01*
X146934988Y-74901633D01*
X146837514Y-74957911D01*
X146837504Y-74957919D01*
X146773118Y-75022305D01*
X146738470Y-75036657D01*
X146703822Y-75022305D01*
X146691140Y-75000339D01*
X146688367Y-74989992D01*
X146688366Y-74989988D01*
X146632088Y-74892514D01*
X146632087Y-74892513D01*
X146632085Y-74892509D01*
X146552491Y-74812915D01*
X146552487Y-74812913D01*
X146552485Y-74812911D01*
X146455011Y-74756633D01*
X146455008Y-74756632D01*
X146346284Y-74727500D01*
X146346281Y-74727500D01*
X146233719Y-74727500D01*
X146233716Y-74727500D01*
X146124991Y-74756632D01*
X146124988Y-74756633D01*
X146027514Y-74812911D01*
X146027505Y-74812918D01*
X145947917Y-74892506D01*
X145947915Y-74892508D01*
X145947915Y-74892509D01*
X145941857Y-74903001D01*
X145912104Y-74925831D01*
X145899423Y-74927500D01*
X144735253Y-74927500D01*
X144644747Y-74927500D01*
X144644745Y-74927500D01*
X144644743Y-74927501D01*
X144561131Y-74962134D01*
X144561129Y-74962135D01*
X144410119Y-75113148D01*
X144375471Y-75127500D01*
X137235253Y-75127500D01*
X137144747Y-75127500D01*
X137144745Y-75127500D01*
X137144743Y-75127501D01*
X137061131Y-75162134D01*
X137061129Y-75162135D01*
X134761169Y-77462098D01*
X134697173Y-77526092D01*
X134697173Y-77526093D01*
X134662537Y-77609708D01*
X134662537Y-78278463D01*
X134648185Y-78313111D01*
X134613537Y-78327463D01*
X134533753Y-78327463D01*
X134425028Y-78356595D01*
X134425025Y-78356596D01*
X134327551Y-78412874D01*
X134327542Y-78412881D01*
X134247955Y-78492468D01*
X134247948Y-78492477D01*
X134191670Y-78589951D01*
X134191669Y-78589954D01*
X134162537Y-78698678D01*
X130157500Y-78698678D01*
X130157500Y-77337442D01*
X130150102Y-77300252D01*
X130136012Y-77279165D01*
X130121922Y-77258077D01*
X130090361Y-77236990D01*
X130079748Y-77229898D01*
X130079747Y-77229897D01*
X130079746Y-77229897D01*
X130042561Y-77222500D01*
X130042558Y-77222500D01*
X128317442Y-77222500D01*
X128317438Y-77222500D01*
X128280253Y-77229897D01*
X128238077Y-77258077D01*
X128209897Y-77300253D01*
X128202500Y-77337438D01*
X126800500Y-77337438D01*
X126800500Y-73949500D01*
X126814852Y-73914852D01*
X126849500Y-73900500D01*
X159150500Y-73900500D01*
X159185148Y-73914852D01*
G37*
%TD.AperFunction*%
%TD*%
M02*
