M48
; DRILL file {KiCad 9.0.7} date 2026-04-17T14:46:04+0200
; FORMAT={-:-/ absolute / metric / decimal}
; #@! TF.CreationDate,2026-04-17T14:46:04+02:00
; #@! TF.GenerationSoftware,Kicad,Pcbnew,9.0.7
; #@! TF.FileFunction,Plated,1,2,PTH
FMAT,2
METRIC
; #@! TA.AperFunction,Plated,PTH,ViaDrill
T1C0.300
; #@! TA.AperFunction,Plated,PTH,ComponentDrill
T2C0.600
; #@! TA.AperFunction,Plated,PTH,ComponentDrill
T3C0.800
; #@! TA.AperFunction,Plated,PTH,ComponentDrill
T4C1.000
; #@! TA.AperFunction,Plated,PTH,ComponentDrill
T5C1.500
%
G90
G05
T1
X129.09Y-107.055
X130.3Y-110.7
X131.3Y-76.0
X131.3Y-81.0
X131.4Y-80.1
X131.6Y-87.4
X131.7Y-85.6
X132.9Y-75.9
X133.2Y-116.9
X133.4Y-84.3
X134.59Y-78.755
X134.9Y-75.9
X135.1Y-105.8
X135.2Y-98.6
X135.3Y-111.9
X135.364Y-79.529
X135.4Y-104.2
X135.6Y-109.8
X135.94Y-80.105
X135.99Y-103.517
X136.09Y-94.055
X136.59Y-97.355
X136.69Y-98.455
X137.99Y-79.065
X138.4Y-117.6
X139.29Y-83.955
X139.8Y-79.4
X140.1Y-117.7
X140.29Y-111.355
X140.3Y-116.6
X141.79Y-77.655
X142.0Y-112.6
X143.1Y-104.2
X143.59Y-113.155
X143.862Y-110.105
X144.6Y-105.4
X144.69Y-80.455
X145.6Y-89.3
X145.7Y-76.4
X146.11Y-102.975
X146.29Y-75.155
X147.1Y-75.3
X148.19Y-118.355
X148.49Y-116.155
X148.699Y-87.578
X148.89Y-88.355
X149.59Y-112.915
X150.0Y-76.0
X150.69Y-93.455
X150.69Y-96.955
X151.29Y-110.815
X151.6Y-75.9
X152.3Y-79.1
X152.59Y-85.255
X152.6Y-107.6
X152.9Y-110.8
X154.4Y-81.9
X154.4Y-111.865
X154.7Y-85.3
X154.8Y-87.2
X155.0Y-83.5
X155.4Y-108.4
X157.2Y-92.7
X157.3Y-94.3
X157.6Y-91.7
X157.8Y-97.0
X157.9Y-86.5
X157.9Y-99.0
X158.0Y-82.9
X158.1Y-101.5
X158.1Y-105.3
X158.2Y-81.3
X158.3Y-85.2
T3
X156.6Y-111.8
X156.6Y-119.42
T4
X129.18Y-78.2
X129.18Y-80.74
X129.18Y-83.28
X129.18Y-85.82
X129.18Y-88.36
X129.18Y-90.9
X129.18Y-93.44
X129.18Y-95.98
T5
X134.4Y-91.0
X155.2Y-91.0
T2
G00X129.225Y-100.28
M15
G01X128.625Y-100.28
M16
G05
G00X129.225Y-108.92
M15
G01X128.625Y-108.92
M16
G05
G00X133.655Y-100.28
M15
G01X132.555Y-100.28
M16
G05
G00X133.655Y-108.92
M15
G01X132.555Y-108.92
M16
G05
M30
